# 3ds Max Wavefront OBJ Exporter v0.99 - (c)2007 guruware
# File Created: 26.05.2023 11:13:13

mtllib CabezaOnix.mtl

#
# object Onix
#

v  -1.9685 1.5642 -11.1252
v  -1.9685 1.5642 -15.0622
v  1.9685 1.5642 -15.0622
v  1.9685 1.5642 -11.1252
v  -1.9685 5.5012 -11.1252
v  1.9685 5.5012 -11.1252
v  1.9685 5.5012 -15.0622
v  -1.9685 5.5012 -15.0622
v  -1.5735 1.8904 -10.4002
v  -1.5735 1.8904 -15.9120
v  1.5761 1.8904 -15.9120
v  1.5761 1.8904 -10.4002
v  -1.5735 5.0400 -10.4002
v  1.5761 5.0400 -10.4002
v  1.5761 5.0400 -15.9120
v  -1.5735 5.0400 -15.9120
v  -1.1798 2.1803 -9.6128
v  -1.4703 2.7175 -16.6994
v  1.4729 2.7175 -16.6994
v  1.1824 2.1803 -9.6128
v  -1.1798 4.5425 -9.6128
v  1.1824 4.5425 -9.6128
v  1.4729 4.5425 -16.6994
v  -1.4703 4.5425 -16.6994
v  -2.3726 1.9001 -14.7041
v  2.3518 1.9001 -14.7041
v  2.3518 1.9001 -11.5545
v  -2.3726 1.9001 -11.5545
v  -2.3726 5.0497 -14.7041
v  -2.3726 5.0497 -11.5545
v  2.3518 5.0497 -11.5545
v  2.3518 5.0497 -14.7041
v  -1.5735 1.2169 -14.8243
v  -1.5735 5.9413 -14.8243
v  1.5761 5.9413 -14.8243
v  1.5761 1.2169 -14.8243
v  -1.5735 1.2169 -11.6747
v  1.5761 1.2169 -11.6747
v  1.5761 5.9413 -11.6747
v  -1.5735 5.9413 -11.6747
v  -1.1798 0.7245 -14.4111
v  -1.1798 6.2363 -14.4111
v  1.1824 6.2363 -14.4111
v  1.1824 0.7245 -14.4111
v  -1.1798 0.7245 -12.0489
v  1.1824 0.7245 -12.0489
v  1.1824 6.2363 -12.0489
v  -1.1798 6.2363 -12.0489
v  -2.7663 2.1643 -14.3104
v  2.7455 2.1643 -14.3104
v  2.7455 2.1643 -11.9482
v  -2.7663 2.1643 -11.9482
v  -2.7663 4.5265 -14.3104
v  -2.7663 4.5265 -11.9482
v  2.7455 4.5265 -11.9482
v  2.7455 4.5265 -14.3104
v  -0.0317 8.1493 -12.4570
v  -0.5249 6.2363 -12.3566
v  0.4614 6.2363 -12.3566
v  -0.0232 6.2363 -14.3251
v  -0.0403 6.2363 -14.3251
v  -0.0317 6.2363 -13.3408
v  1.5145 3.6894 -15.7830
v  1.5145 4.5581 -15.7830
v  0.7683 4.6445 -15.7830
v  0.7683 3.6894 -15.7830
v  0.0221 4.9701 -15.7830
v  0.0221 3.6894 -15.7830
v  -0.7241 4.6364 -15.7830
v  -0.7241 3.6894 -15.7830
v  -1.4703 4.5625 -15.7830
v  -1.4703 3.6894 -15.7830
v  1.2200 3.8294 -17.7421
v  0.7683 3.8294 -17.9651
v  0.7683 4.2539 -17.9651
v  1.2757 4.1436 -17.6096
v  0.0221 3.8294 -18.2329
v  0.0221 4.2702 -18.2329
v  -0.7241 3.8294 -17.9651
v  -0.7241 4.3035 -17.9651
v  -1.2296 3.8294 -17.7421
v  -1.2979 4.1986 -17.6096
v  0.7683 3.5709 -16.6756
v  1.5145 3.5709 -16.6756
v  0.0221 3.5709 -16.6756
v  -0.7241 3.5709 -16.6756
v  -1.4703 3.5709 -16.6756
v  -1.4703 4.5679 -16.6756
v  -0.7241 4.5679 -16.6756
v  0.0221 4.9788 -16.6756
v  0.7683 4.5766 -16.6756
v  1.5145 4.5726 -16.6756
v  -1.4771 3.4512 -15.7830
v  -1.4771 2.5825 -15.7830
v  -0.7309 2.4961 -15.7830
v  -0.7309 3.4512 -15.7830
v  0.0153 2.1705 -15.7830
v  0.0153 3.4512 -15.7830
v  0.7615 2.5042 -15.7830
v  0.7615 3.4512 -15.7830
v  1.5077 2.5781 -15.7830
v  1.5077 3.4512 -15.7830
v  -1.1827 3.3112 -17.7421
v  -0.7309 3.3112 -17.9651
v  -0.7309 2.8867 -17.9651
v  -1.2384 2.9970 -17.6096
v  0.0153 3.3112 -18.2329
v  0.0153 2.8704 -18.2329
v  0.7615 3.3112 -17.9651
v  0.7615 2.8371 -17.9651
v  1.2669 3.3112 -17.7421
v  1.3352 2.9420 -17.6096
v  -0.7309 3.5697 -16.6756
v  -1.4771 3.5697 -16.6756
v  0.0153 3.5697 -16.6756
v  0.7615 3.5697 -16.6756
v  1.5077 3.5697 -16.6756
v  1.5077 2.5727 -16.6756
v  0.7615 2.5727 -16.6756
v  0.0153 2.1618 -16.6756
v  -0.7309 2.5639 -16.6756
v  -1.4771 2.5680 -16.6756
v  -1.0878 0.7245 -8.9834
v  -1.0878 6.2363 -8.9834
v  1.2670 6.2363 -9.1712
v  1.2670 0.7245 -9.1712
v  -0.8686 0.7245 -6.2349
v  1.4862 0.7245 -6.4227
v  1.4862 6.2363 -6.4227
v  -0.8686 6.2363 -6.2349
v  -1.5186 1.2169 -9.4329
v  -1.5186 5.9413 -9.4329
v  1.6211 5.9413 -9.6833
v  1.6211 1.2169 -9.6833
v  -1.2263 1.2169 -5.7682
v  1.9133 1.2169 -6.0186
v  1.9133 5.9413 -6.0186
v  -1.2263 5.9413 -5.7682
v  -1.5690 1.5642 -5.0974
v  -1.9344 1.5642 -9.6782
v  1.9902 1.5642 -9.9912
v  2.3555 1.5642 -5.4104
v  -1.5690 5.5012 -5.0974
v  2.3555 5.5012 -5.4104
v  1.9902 5.5012 -9.9912
v  -1.9344 5.5012 -9.6782
v  -2.3039 1.9001 -9.2295
v  2.4055 1.9001 -9.6051
v  2.6978 1.9001 -5.9404
v  -2.0116 1.9001 -5.5648
v  -2.3039 5.0497 -9.2295
v  -2.0116 5.0497 -5.5648
v  2.6978 5.0497 -5.9404
v  2.4055 5.0497 -9.6051
v  -1.1446 1.8904 -4.7434
v  -1.5830 1.8904 -10.2404
v  1.5567 1.8904 -10.4908
v  1.9951 1.8904 -4.9938
v  -1.1446 5.0400 -4.7434
v  1.9951 5.0400 -4.9938
v  1.5567 5.0400 -10.4908
v  -1.5830 5.0400 -10.2404
v  -0.7156 2.1803 -4.3166
v  -1.2271 2.1803 -10.7298
v  1.1277 2.1803 -10.9176
v  1.6392 2.1803 -4.5044
v  -0.7156 4.5425 -4.3166
v  1.6392 4.5425 -4.5044
v  1.1277 4.5425 -10.9176
v  -1.2271 4.5425 -10.7298
v  -2.6598 2.1643 -8.7401
v  2.8345 2.1643 -9.1783
v  3.0537 2.1643 -6.4298
v  -2.4406 2.1643 -5.9916
v  -2.6598 4.5265 -8.7401
v  -2.4406 4.5265 -5.9916
v  3.0537 4.5265 -6.4298
v  2.8345 4.5265 -9.1783
# 178 vertices

vn 0.0000 -1.0000 -0.0000
vn 0.0000 1.0000 -0.0000
vn 0.0000 0.0000 1.0000
vn 1.0000 0.0000 -0.0000
vn 0.0000 0.0000 -1.0000
vn -1.0000 0.0000 -0.0000
vn 0.0000 1.0000 0.0000
vn 0.0000 -0.0000 1.0000
vn 0.0000 0.0718 0.9974
vn 0.9978 0.0665 -0.0000
vn 0.0000 0.5111 -0.8595
vn -0.9978 0.0665 -0.0000
vn -0.0000 0.0000 1.0000
vn 0.5227 0.1122 -0.8451
vn 0.4332 0.0565 -0.8995
vn 0.4271 0.0528 -0.9027
vn -0.0071 0.0000 -1.0000
vn -0.4094 0.0495 -0.9110
vn -0.4067 0.0476 -0.9123
vn -0.4776 0.0985 -0.8730
vn -0.0000 -0.9913 0.1316
vn 0.0185 -0.9992 -0.0341
vn 0.0188 -0.9994 -0.0282
vn 0.0000 -0.9913 0.1316
vn 0.0000 -0.9997 -0.0238
vn -0.0180 -0.9993 -0.0338
vn -0.0183 -0.9994 -0.0308
vn 0.0353 -0.9805 -0.1936
vn 0.0408 -0.9749 -0.2190
vn 0.0000 -0.9839 -0.1786
vn -0.0346 -0.9805 -0.1935
vn -0.0388 -0.9752 -0.2179
vn -1.0000 0.0000 0.0000
vn -0.9961 -0.0129 -0.0875
vn -0.9952 -0.0143 -0.0972
vn -0.9792 -0.0295 -0.2006
vn -0.0494 0.9982 -0.0353
vn -0.2557 0.9662 -0.0333
vn -0.2894 0.9476 -0.1355
vn -0.0983 0.9833 -0.1529
vn -0.0045 0.9994 -0.0333
vn 0.0002 0.9873 -0.1589
vn 0.2566 0.9661 -0.0304
vn 0.2947 0.9425 -0.1574
vn 0.0605 0.9977 -0.0298
vn 0.1166 0.9782 -0.1717
vn -0.1912 0.9250 -0.3284
vn -0.1512 0.9475 -0.2818
vn 0.2258 0.9090 -0.3503
vn 0.0312 0.9097 -0.4140
vn 0.1787 0.9261 -0.3323
vn 1.0000 -0.0000 -0.0000
vn 0.9922 -0.0074 -0.1247
vn 0.9939 -0.0065 -0.1100
vn 0.9665 -0.0151 -0.2563
vn -0.5227 -0.1122 -0.8451
vn -0.4332 -0.0565 -0.8995
vn -0.4271 -0.0528 -0.9027
vn -0.0000 -0.0000 -1.0000
vn 0.0071 -0.0000 -1.0000
vn 0.4094 -0.0495 -0.9110
vn 0.4067 -0.0476 -0.9123
vn 0.4776 -0.0985 -0.8730
vn 0.0000 0.9913 0.1316
vn -0.0000 0.9913 0.1316
vn -0.0185 0.9992 -0.0341
vn -0.0188 0.9994 -0.0282
vn -0.0000 0.9997 -0.0238
vn 0.0180 0.9993 -0.0338
vn 0.0183 0.9994 -0.0308
vn -0.0353 0.9805 -0.1936
vn -0.0408 0.9749 -0.2190
vn 0.0000 0.9839 -0.1786
vn 0.0346 0.9805 -0.1935
vn 0.0388 0.9752 -0.2179
vn 1.0000 -0.0000 0.0000
vn 0.9961 0.0129 -0.0875
vn 0.9952 0.0143 -0.0972
vn 0.9792 0.0295 -0.2006
vn 0.0494 -0.9982 -0.0353
vn 0.2557 -0.9662 -0.0333
vn 0.2894 -0.9476 -0.1355
vn 0.0983 -0.9833 -0.1529
vn 0.0045 -0.9994 -0.0333
vn -0.0002 -0.9873 -0.1589
vn -0.2566 -0.9661 -0.0304
vn -0.2947 -0.9425 -0.1574
vn -0.0605 -0.9977 -0.0298
vn -0.1166 -0.9782 -0.1717
vn 0.1912 -0.9250 -0.3284
vn 0.1512 -0.9475 -0.2818
vn -0.2258 -0.9090 -0.3503
vn -0.0312 -0.9097 -0.4140
vn -0.1787 -0.9261 -0.3323
vn -0.9922 0.0074 -0.1247
vn -0.9939 0.0065 -0.1100
vn -0.9665 0.0151 -0.2563
vn -0.0795 0.0000 -0.9968
vn 0.0795 0.0000 0.9968
vn -0.0000 -1.0000 -0.0000
vn 0.9968 0.0000 -0.0795
vn -0.9968 0.0000 0.0795
# 102 vertex normals

vt 1.0000 0.0000 0.0000
vt 1.0000 1.0000 0.0000
vt 0.0000 1.0000 0.0000
vt 0.0000 0.0000 0.0000
vt 0.5000 1.0000 0.0000
vt 0.5000 0.5000 0.0000
vt 0.7500 1.0000 0.0000
vt 0.7500 0.0000 0.0000
vt 0.5000 0.0000 0.0000
vt 0.2500 1.0000 0.0000
vt 0.2500 0.0000 0.0000
vt 0.2500 0.5000 0.0000
vt 0.0000 0.5000 0.0000
vt 0.7500 0.5000 0.0000
vt 1.0000 0.5000 0.0000
# 15 texture coords

o Onix
g Onix
usemtl 02___Default
s off
f 1/1/1 2/2/1 3/3/1 4/4/1 
f 5/4/2 6/1/2 7/2/2 8/3/2 
f 1/4/3 4/1/3 6/2/3 5/3/3 
f 4/4/4 3/1/4 7/2/4 6/3/4 
f 3/4/5 2/1/5 8/2/5 7/3/5 
f 2/4/6 1/1/6 5/2/6 8/3/6 
f 9/1/1 10/2/1 11/3/1 12/4/1 
f 13/4/2 14/1/2 15/2/2 16/3/2 
f 9/4/3 12/1/3 14/2/3 13/3/3 
f 12/4/4 11/1/4 15/2/4 14/3/4 
f 11/4/5 10/1/5 16/2/5 15/3/5 
f 10/4/6 9/1/6 13/2/6 16/3/6 
f 17/1/1 18/2/1 19/3/1 20/4/1 
f 21/4/2 22/1/2 23/2/2 24/3/2 
f 17/4/3 20/1/3 22/2/3 21/3/3 
f 20/4/4 19/1/4 23/2/4 22/3/4 
f 19/4/5 18/1/5 24/2/5 23/3/5 
f 18/4/6 17/1/6 21/2/6 24/3/6 
f 25/1/1 26/2/1 27/3/1 28/4/1 
f 29/4/2 30/1/2 31/2/2 32/3/2 
f 25/4/6 28/1/6 30/2/6 29/3/6 
f 28/4/3 27/1/3 31/2/3 30/3/3 
f 27/4/4 26/1/4 32/2/4 31/3/4 
f 26/4/5 25/1/5 29/2/5 32/3/5 
f 33/1/5 34/2/5 35/3/5 36/4/5 
f 37/4/3 38/1/3 39/2/3 40/3/3 
f 33/4/1 36/1/1 38/2/1 37/3/1 
f 36/4/4 35/1/4 39/2/4 38/3/4 
f 35/4/7 34/1/7 40/2/7 39/3/7 
f 34/4/6 33/1/6 37/2/6 40/3/6 
f 41/1/5 42/2/5 43/3/5 44/4/5 
f 45/4/8 46/1/8 47/2/8 48/3/8 
f 41/4/1 44/1/1 46/2/1 45/3/1 
f 44/4/4 43/1/4 47/2/4 46/3/4 
f 43/4/2 42/1/2 48/2/2 47/3/2 
f 42/4/6 41/1/6 45/2/6 48/3/6 
f 49/1/1 50/2/1 51/3/1 52/4/1 
f 53/4/2 54/1/2 55/2/2 56/3/2 
f 49/4/6 52/1/6 54/2/6 53/3/6 
f 52/4/3 51/1/3 55/2/3 54/3/3 
f 51/4/4 50/1/4 56/2/4 55/3/4 
f 50/4/5 49/1/5 53/2/5 56/3/5 
f 57/5/9 58/4/9 59/1/9 
f 57/5/10 59/4/10 60/1/10 
f 57/5/11 60/4/11 61/1/11 
f 57/5/12 61/4/12 58/1/12 
f 58/3/1 62/6/1 59/2/1 
f 59/2/1 62/6/1 60/1/1 
f 60/1/1 62/6/1 61/4/1 
f 61/4/1 62/6/1 58/3/1 
s 2
f 63/1/13 64/2/13 65/7/13 66/8/13 
f 66/8/13 65/7/13 67/5/3 68/9/3 
f 68/9/3 67/5/3 69/10/3 70/11/3 
f 70/11/3 69/10/3 71/3/3 72/4/3 
s 4
f 73/4/14 74/11/15 75/10/16 76/3/14 
f 74/11/15 77/9/5 78/5/17 75/10/16 
f 77/9/5 79/8/18 80/7/19 78/5/17 
f 79/8/18 81/1/20 82/2/20 80/7/19 
s 8
f 63/4/21 66/11/21 83/12/22 84/13/23 
f 66/11/21 68/9/24 85/6/25 83/12/22 
f 68/9/24 70/8/24 86/14/26 85/6/25 
f 70/8/24 72/1/24 87/15/27 86/14/26 
f 84/13/23 83/12/22 74/10/28 73/3/29 
f 83/12/22 85/6/25 77/5/30 74/10/28 
f 85/6/25 86/14/26 79/7/31 77/5/30 
f 86/14/26 87/15/27 81/2/32 79/7/31 
s 16
f 72/4/33 71/1/33 88/15/34 87/13/35 
f 87/13/35 88/15/34 82/2/36 81/3/36 
s 32
f 71/4/37 69/11/38 89/12/39 88/13/40 
f 69/11/38 67/9/41 90/6/42 89/12/39 
f 67/9/41 65/8/43 91/14/44 90/6/42 
f 65/8/43 64/1/45 92/15/46 91/14/44 
f 88/13/40 89/12/39 80/10/47 82/3/48 
f 89/12/39 90/6/42 80/10/47 
f 90/6/42 75/7/49 78/5/50 
f 91/14/44 92/15/46 76/2/51 75/7/49 
s 64
f 64/4/52 63/1/52 84/15/53 92/13/54 
f 92/13/54 84/15/53 73/2/55 76/3/55 
s 32
f 90/6/42 91/14/44 75/7/49 
f 90/6/42 78/5/50 80/10/47 
s 2
f 93/1/3 94/2/3 95/7/3 96/8/3 
f 96/8/3 95/7/3 97/5/3 98/9/3 
f 98/9/3 97/5/3 99/10/3 100/11/3 
f 100/11/3 99/10/3 101/3/3 102/4/3 
s 4
f 103/4/56 104/11/57 105/10/58 106/3/56 
f 104/11/57 107/9/59 108/5/60 105/10/58 
f 107/9/59 109/8/61 110/7/62 108/5/60 
f 109/8/61 111/1/63 112/2/63 110/7/62 
s 8
f 93/4/64 96/11/65 113/12/66 114/13/67 
f 96/11/65 98/9/65 115/6/68 113/12/66 
f 98/9/65 100/8/65 116/14/69 115/6/68 
f 100/8/65 102/1/65 117/15/70 116/14/69 
f 114/13/67 113/12/66 104/10/71 103/3/72 
f 113/12/66 115/6/68 107/5/73 104/10/71 
f 115/6/68 116/14/69 109/7/74 107/5/73 
f 116/14/69 117/15/70 111/2/75 109/7/74 
s 16
f 102/4/76 101/1/76 118/15/77 117/13/78 
f 117/13/78 118/15/77 112/2/79 111/3/79 
s 32
f 101/4/80 99/11/81 119/12/82 118/13/83 
f 99/11/81 97/9/84 120/6/85 119/12/82 
f 97/9/84 95/8/86 121/14/87 120/6/85 
f 95/8/86 94/1/88 122/15/89 121/14/87 
f 118/13/83 119/12/82 110/10/90 112/3/91 
f 119/12/82 120/6/85 110/10/90 
f 120/6/85 105/7/92 108/5/93 
f 121/14/87 122/15/89 106/2/94 105/7/92 
s 64
f 94/4/6 93/1/6 114/15/95 122/13/96 
f 122/13/96 114/15/95 103/2/97 106/3/97 
s 32
f 120/6/85 121/14/87 105/7/92 
f 120/6/85 108/5/93 110/10/90 
s off
f 123/1/98 124/2/98 125/3/98 126/4/98 
f 127/4/99 128/1/99 129/2/99 130/3/99 
f 123/4/100 126/1/100 128/2/100 127/3/100 
f 126/4/101 125/1/101 129/2/101 128/3/101 
f 125/4/2 124/1/2 130/2/2 129/3/2 
f 124/4/102 123/1/102 127/2/102 130/3/102 
f 131/1/98 132/2/98 133/3/98 134/4/98 
f 135/4/99 136/1/99 137/2/99 138/3/99 
f 131/4/100 134/1/100 136/2/100 135/3/100 
f 134/4/101 133/1/101 137/2/101 136/3/101 
f 133/4/2 132/1/2 138/2/2 137/3/2 
f 132/4/102 131/1/102 135/2/102 138/3/102 
f 139/1/1 140/2/1 141/3/1 142/4/1 
f 143/4/2 144/1/2 145/2/2 146/3/2 
f 139/4/99 142/1/99 144/2/99 143/3/99 
f 142/4/101 141/1/101 145/2/101 144/3/101 
f 141/4/98 140/1/98 146/2/98 145/3/98 
f 140/4/102 139/1/102 143/2/102 146/3/102 
f 147/1/1 148/2/1 149/3/1 150/4/1 
f 151/4/2 152/1/2 153/2/2 154/3/2 
f 147/4/102 150/1/102 152/2/102 151/3/102 
f 150/4/99 149/1/99 153/2/99 152/3/99 
f 149/4/101 148/1/101 154/2/101 153/3/101 
f 148/4/98 147/1/98 151/2/98 154/3/98 
f 155/1/1 156/2/1 157/3/1 158/4/1 
f 159/4/2 160/1/2 161/2/2 162/3/2 
f 155/4/99 158/1/99 160/2/99 159/3/99 
f 158/4/101 157/1/101 161/2/101 160/3/101 
f 157/4/98 156/1/98 162/2/98 161/3/98 
f 156/4/102 155/1/102 159/2/102 162/3/102 
f 163/1/1 164/2/1 165/3/1 166/4/1 
f 167/4/2 168/1/2 169/2/2 170/3/2 
f 163/4/99 166/1/99 168/2/99 167/3/99 
f 166/4/101 165/1/101 169/2/101 168/3/101 
f 165/4/98 164/1/98 170/2/98 169/3/98 
f 164/4/102 163/1/102 167/2/102 170/3/102 
f 171/1/1 172/2/1 173/3/1 174/4/1 
f 175/4/2 176/1/2 177/2/2 178/3/2 
f 171/4/102 174/1/102 176/2/102 175/3/102 
f 174/4/99 173/1/99 177/2/99 176/3/99 
f 173/4/101 172/1/101 178/2/101 177/3/101 
f 172/4/98 171/1/98 175/2/98 178/3/98 
# 136 polygons - 16 triangles

#
# object Box001
#

v  -1.0622 4.8920 -15.6872
v  -0.9346 4.5367 -16.2386
v  -0.3666 4.7113 -16.4591
v  -0.1603 4.8389 -16.4577
v  -1.1054 4.9625 -15.7426
v  -0.2035 4.9094 -16.5131
v  -0.4098 4.7818 -16.5145
v  -0.9778 4.6072 -16.2940
# 8 vertices

vn -0.1937 -0.1263 0.9729
vn -0.2241 -0.9746 0.0051
vn 0.3653 -0.8992 -0.2410
vn 0.9860 -0.1664 0.0078
vn -0.6682 0.6489 0.3639
vn 0.5085 0.6129 -0.6048
vn -0.2086 0.0375 -0.9773
vn -0.7413 -0.1306 -0.6584
# 8 vertex normals

vt 0.2732 0.5463 0.0000
vt 0.2507 0.5018 0.0000
vt 0.1999 0.5066 0.0000
vt 0.1832 0.5158 0.0000
vt 0.2720 0.5465 0.0000
vt 0.1843 0.5145 0.0000
vt 0.2018 0.5058 0.0000
vt 0.2532 0.5021 0.0000
vt 0.1881 0.5267 0.0000
vt 0.2529 0.5440 0.0000
vt 0.2489 0.5593 0.0000
vt 0.1840 0.5419 0.0000
vt 0.1874 0.4865 0.0000
vt 0.2011 0.4865 0.0000
vt 0.2011 0.4987 0.0000
vt 0.1874 0.4987 0.0000
vt 0.2401 0.4865 0.0000
vt 0.2401 0.4987 0.0000
vt 0.2732 0.4933 0.0000
vt 0.2929 0.5357 0.0000
vt 0.2761 0.5436 0.0000
vt 0.2563 0.5012 0.0000
# 22 texture coords

o Box001
g Box001
usemtl 01___Default
s 2
f 179/16/103 180/17/104 181/18/105 182/19/106 
s 4
f 183/20/107 184/21/108 185/22/109 186/23/110 
s 8
f 179/24/103 182/25/106 184/26/108 183/27/107 
s 16
f 182/28/106 181/29/105 185/30/109 184/31/108 
s 32
f 181/29/105 180/32/104 186/33/110 185/30/109 
s 64
f 180/34/104 179/35/103 183/36/107 186/37/110 
# 6 polygons

#
# object Box002
#

v  1.2898 4.9814 -15.8229
v  1.1606 4.7638 -16.4414
v  0.5331 4.7796 -16.5293
v  0.3032 4.8212 -16.4639
v  1.2826 4.8883 -15.7886
v  0.2960 4.7280 -16.4297
v  0.5259 4.6864 -16.4950
v  1.1534 4.6707 -16.4072
# 8 vertices

vn 0.5038 0.7209 0.4760
vn 0.5880 0.3180 -0.7438
vn -0.0256 0.3662 -0.9302
vn -0.7860 0.5320 -0.3150
vn 0.4250 -0.3032 0.8529
vn -0.8648 -0.4980 0.0639
vn -0.1204 -0.8718 -0.4749
vn 0.5026 -0.7976 -0.3335
# 8 vertex normals

vt 0.2732 0.5463 0.0000
vt 0.2507 0.5018 0.0000
vt 0.1999 0.5066 0.0000
vt 0.1832 0.5158 0.0000
vt 0.2720 0.5465 0.0000
vt 0.1843 0.5145 0.0000
vt 0.2018 0.5058 0.0000
vt 0.2532 0.5021 0.0000
vt 0.1881 0.5267 0.0000
vt 0.2529 0.5440 0.0000
vt 0.2489 0.5593 0.0000
vt 0.1840 0.5419 0.0000
vt 0.1874 0.4865 0.0000
vt 0.2011 0.4865 0.0000
vt 0.2011 0.4987 0.0000
vt 0.1874 0.4987 0.0000
vt 0.2401 0.4865 0.0000
vt 0.2401 0.4987 0.0000
vt 0.2732 0.4933 0.0000
vt 0.2929 0.5357 0.0000
vt 0.2761 0.5436 0.0000
vt 0.2563 0.5012 0.0000
# 22 texture coords

o Box002
g Box002
usemtl 01___Default
s 2
f 187/38/111 188/39/112 189/40/113 190/41/114 
s 4
f 191/42/115 192/43/116 193/44/117 194/45/118 
s 8
f 187/46/111 190/47/114 192/48/116 191/49/115 
s 16
f 190/50/114 189/51/113 193/52/117 192/53/116 
s 32
f 189/51/113 188/54/112 194/55/118 193/52/117 
s 64
f 188/56/112 187/57/111 191/58/115 194/59/118 
# 6 polygons

