# 3ds Max Wavefront OBJ Exporter v0.99 - (c)2007 guruware
# File Created: 26.05.2023 11:13:33

mtllib CuerpoOnix.mtl

#
# object Parte2
#

v  -1.6861 1.2169 -4.0057
v  -1.6861 5.9413 -4.0057
v  1.4403 5.9413 -3.6240
v  1.4403 1.2169 -3.6240
v  -2.0678 1.2169 -0.8793
v  1.0586 1.2169 -0.4976
v  1.0586 5.9413 -0.4976
v  -2.0678 5.9413 -0.8793
v  -1.8314 2.1803 0.4335
v  -1.1635 2.1803 -5.0377
v  1.1813 2.1803 -4.7514
v  0.5134 2.1803 0.7198
v  -1.8314 4.5425 0.4335
v  0.5134 4.5425 0.7198
v  1.1813 4.5425 -4.7514
v  -1.1635 4.5425 -5.0377
v  -2.1745 1.8904 -0.0050
v  -1.6020 1.8904 -4.6946
v  1.5244 1.8904 -4.3129
v  0.9519 1.8904 0.3767
v  -2.1745 5.0400 -0.0050
v  0.9519 5.0400 0.3767
v  1.5244 5.0400 -4.3129
v  -1.6020 5.0400 -4.6946
v  -2.5264 1.5642 -0.3817
v  -2.0493 1.5642 -4.2897
v  1.8587 1.5642 -3.8126
v  1.3816 1.5642 0.0954
v  -2.5264 5.5012 -0.3817
v  1.3816 5.5012 0.0954
v  1.8587 5.5012 -3.8126
v  -2.0493 5.5012 -4.2897
v  -2.4938 1.9001 -3.9832
v  2.1958 1.9001 -3.4107
v  1.8141 1.9001 -0.2843
v  -2.8755 1.9001 -0.8568
v  -2.4938 5.0497 -3.9832
v  -2.8755 5.0497 -0.8568
v  1.8141 5.0497 -0.2843
v  2.1958 5.0497 -3.4107
v  -2.9323 2.1643 -3.6401
v  2.5389 2.1643 -2.9722
v  2.2526 2.1643 -0.6274
v  -3.2186 2.1643 -1.2953
v  -2.9323 4.5265 -3.6401
v  -3.2186 4.5265 -1.2953
v  2.2526 4.5265 -0.6274
v  2.5389 4.5265 -2.9722
v  -1.3454 0.7245 -3.5478
v  -1.3454 6.2363 -3.5478
v  0.9994 6.2363 -3.2616
v  0.9994 0.7245 -3.2616
v  -1.6316 0.7245 -1.2030
v  0.7132 0.7245 -0.9168
v  0.7132 6.2363 -0.9168
v  -1.6316 6.2363 -1.2030
v  -1.2438 1.9239 4.3506
v  -1.5364 1.9239 1.1729
v  1.6412 1.9239 0.8803
v  1.9339 1.9239 4.0579
v  -1.2438 5.1150 4.3506
v  1.9339 5.1150 4.0579
v  1.6412 5.1150 0.8803
v  -1.5364 5.1150 1.1729
v  -0.8514 1.2433 1.6398
v  -0.8514 5.7108 1.6398
v  1.0551 5.7108 1.4642
v  1.0551 1.2433 1.4642
v  -0.6759 1.2433 3.5464
v  1.2307 1.2433 3.3708
v  1.2307 5.7108 3.3708
v  -0.6759 5.7108 3.5464
v  -1.8359 2.1962 1.4920
v  1.9773 2.1962 1.1408
v  2.2114 2.1962 3.6829
v  -1.6018 2.1962 4.0340
v  -1.8359 4.7490 1.4920
v  -1.6018 4.7490 4.0340
v  2.2114 4.7490 3.6829
v  1.9773 4.7490 1.1408
v  -2.1244 2.4103 1.8390
v  2.3243 2.4103 1.4293
v  2.4999 2.4103 3.3359
v  -1.9488 2.4103 3.7456
v  -2.1244 4.3249 1.8390
v  -1.9488 4.3249 3.7456
v  2.4999 4.3249 3.3359
v  2.3243 4.3249 1.4293
v  -1.1999 1.6424 1.3356
v  -1.1999 5.4717 1.3356
v  1.3422 5.4717 1.1014
v  1.3422 1.6424 1.1014
v  -0.9658 1.6424 3.8777
v  1.5763 1.6424 3.6435
v  1.5763 5.4717 3.6435
v  -0.9658 5.4717 3.8777
v  -0.9003 2.1883 4.5886
v  -1.2515 2.1883 0.7754
v  1.2906 2.1883 0.5413
v  1.6418 2.1883 4.3544
v  -0.9003 4.7412 4.5886
v  1.6418 4.7412 4.3544
v  1.2906 4.7412 0.5413
v  -1.2515 4.7412 0.7754
v  -0.5533 2.4233 4.8770
v  -0.9630 2.4233 0.4284
v  0.9436 2.4233 0.2528
v  1.3533 2.4233 4.7015
v  -0.5533 4.3379 4.8770
v  1.3533 4.3379 4.7015
v  0.9436 4.3379 0.2528
v  -0.9630 4.3379 0.4284
# 112 vertices

vn 0.0000 0.0000 -1.0000
vn 0.0000 0.0000 1.0000
vn 0.0000 -1.0000 -0.0000
vn 1.0000 0.0000 -0.0000
vn 0.0000 1.0000 0.0000
vn -1.0000 0.0000 -0.0000
vn 0.0000 1.0000 -0.0000
vn 0.0000 -0.0000 1.0000
vn 0.2117 0.0000 0.9773
vn 0.9773 0.0000 -0.2117
vn -0.2117 0.0000 -0.9773
vn -0.9773 0.0000 0.2117
vn -0.0000 -1.0000 -0.0000
# 13 vertex normals

vt 1.0000 0.0000 0.0000
vt 1.0000 1.0000 0.0000
vt 0.0000 1.0000 0.0000
vt 0.0000 0.0000 0.0000
# 4 texture coords

o Parte2
g Parte2
usemtl 02___Default
s off
f 1/1/1 2/2/1 3/3/1 4/4/1 
f 5/4/2 6/1/2 7/2/2 8/3/2 
f 1/4/3 4/1/3 6/2/3 5/3/3 
f 4/4/4 3/1/4 7/2/4 6/3/4 
f 3/4/5 2/1/5 8/2/5 7/3/5 
f 2/4/6 1/1/6 5/2/6 8/3/6 
f 9/1/3 10/2/3 11/3/3 12/4/3 
f 13/4/7 14/1/7 15/2/7 16/3/7 
f 9/4/2 12/1/2 14/2/2 13/3/2 
f 12/4/4 11/1/4 15/2/4 14/3/4 
f 11/4/1 10/1/1 16/2/1 15/3/1 
f 10/4/6 9/1/6 13/2/6 16/3/6 
f 17/1/3 18/2/3 19/3/3 20/4/3 
f 21/4/7 22/1/7 23/2/7 24/3/7 
f 17/4/2 20/1/2 22/2/2 21/3/2 
f 20/4/4 19/1/4 23/2/4 22/3/4 
f 19/4/1 18/1/1 24/2/1 23/3/1 
f 18/4/6 17/1/6 21/2/6 24/3/6 
f 25/1/3 26/2/3 27/3/3 28/4/3 
f 29/4/7 30/1/7 31/2/7 32/3/7 
f 25/4/2 28/1/2 30/2/2 29/3/2 
f 28/4/4 27/1/4 31/2/4 30/3/4 
f 27/4/1 26/1/1 32/2/1 31/3/1 
f 26/4/6 25/1/6 29/2/6 32/3/6 
f 33/1/3 34/2/3 35/3/3 36/4/3 
f 37/4/7 38/1/7 39/2/7 40/3/7 
f 33/4/6 36/1/6 38/2/6 37/3/6 
f 36/4/2 35/1/2 39/2/2 38/3/2 
f 35/4/4 34/1/4 40/2/4 39/3/4 
f 34/4/1 33/1/1 37/2/1 40/3/1 
f 41/1/3 42/2/3 43/3/3 44/4/3 
f 45/4/7 46/1/7 47/2/7 48/3/7 
f 41/4/6 44/1/6 46/2/6 45/3/6 
f 44/4/2 43/1/2 47/2/2 46/3/2 
f 43/4/4 42/1/4 48/2/4 47/3/4 
f 42/4/1 41/1/1 45/2/1 48/3/1 
f 49/1/1 50/2/1 51/3/1 52/4/1 
f 53/4/8 54/1/8 55/2/8 56/3/8 
f 49/4/3 52/1/3 54/2/3 53/3/3 
f 52/4/4 51/1/4 55/2/4 54/3/4 
f 51/4/7 50/1/7 56/2/7 55/3/7 
f 50/4/6 49/1/6 53/2/6 56/3/6 
f 57/1/3 58/2/3 59/3/3 60/4/3 
f 61/4/7 62/1/7 63/2/7 64/3/7 
f 57/4/9 60/1/9 62/2/9 61/3/9 
f 60/4/10 59/1/10 63/2/10 62/3/10 
f 59/4/11 58/1/11 64/2/11 63/3/11 
f 58/4/12 57/1/12 61/2/12 64/3/12 
f 65/1/11 66/2/11 67/3/11 68/4/11 
f 69/4/9 70/1/9 71/2/9 72/3/9 
f 65/4/3 68/1/3 70/2/3 69/3/3 
f 68/4/10 67/1/10 71/2/10 70/3/10 
f 67/4/7 66/1/7 72/2/7 71/3/7 
f 66/4/12 65/1/12 69/2/12 72/3/12 
f 73/1/3 74/2/3 75/3/3 76/4/3 
f 77/4/7 78/1/7 79/2/7 80/3/7 
f 73/4/12 76/1/12 78/2/12 77/3/12 
f 76/4/9 75/1/9 79/2/9 78/3/9 
f 75/4/10 74/1/10 80/2/10 79/3/10 
f 74/4/11 73/1/11 77/2/11 80/3/11 
f 81/1/3 82/2/3 83/3/3 84/4/3 
f 85/4/7 86/1/7 87/2/7 88/3/7 
f 81/4/12 84/1/12 86/2/12 85/3/12 
f 84/4/9 83/1/9 87/2/9 86/3/9 
f 83/4/10 82/1/10 88/2/10 87/3/10 
f 82/4/11 81/1/11 85/2/11 88/3/11 
f 89/1/11 90/2/11 91/3/11 92/4/11 
f 93/4/9 94/1/9 95/2/9 96/3/9 
f 89/4/13 92/1/13 94/2/13 93/3/13 
f 92/4/10 91/1/10 95/2/10 94/3/10 
f 91/4/7 90/1/7 96/2/7 95/3/7 
f 90/4/12 89/1/12 93/2/12 96/3/12 
f 97/1/3 98/2/3 99/3/3 100/4/3 
f 101/4/7 102/1/7 103/2/7 104/3/7 
f 97/4/9 100/1/9 102/2/9 101/3/9 
f 100/4/10 99/1/10 103/2/10 102/3/10 
f 99/4/11 98/1/11 104/2/11 103/3/11 
f 98/4/12 97/1/12 101/2/12 104/3/12 
f 105/1/3 106/2/3 107/3/3 108/4/3 
f 109/4/7 110/1/7 111/2/7 112/3/7 
f 105/4/9 108/1/9 110/2/9 109/3/9 
f 108/4/10 107/1/10 111/2/10 110/3/10 
f 107/4/11 106/1/11 112/2/11 111/3/11 
f 106/4/12 105/1/12 109/2/12 112/3/12 
# 84 polygons

