# 3ds Max Wavefront OBJ Exporter v0.99 - (c)2007 guruware
# File Created: 25.05.2023 22:55:28

mtllib LabPokemon.mtl

#
# object Oak_Pokemon_Research_Lab
#

v  48.0000 64.0000 21.0000
v  48.0000 56.0000 21.0000
v  -48.0000 56.0000 21.0000
v  -48.0000 64.0000 21.0000
v  -48.0000 56.0000 -26.0000
v  48.0000 56.0000 -26.0000
v  17.0000 27.6367 24.5000
v  17.0000 14.6367 24.5000
v  26.0000 14.6367 24.5000
v  26.0000 27.6367 24.5000
v  28.0000 27.6367 24.5000
v  28.0000 14.6367 24.5000
v  37.0000 14.6367 24.5000
v  37.0000 27.6367 24.5000
v  -37.0000 27.6367 24.5000
v  -37.0000 14.6367 24.5000
v  -28.0000 14.6367 24.5000
v  -28.0000 27.6367 24.5000
v  -26.0000 27.6367 24.5000
v  -26.0000 14.6367 24.5000
v  -17.0000 14.6367 24.5000
v  -17.0000 27.6367 24.5000
v  -24.0000 49.0000 25.0000
v  -24.0000 33.0000 25.0000
v  -8.0000 33.0000 25.0000
v  -8.0000 49.0000 25.0000
v  8.0000 49.0000 25.0000
v  8.0000 33.0000 25.0000
v  24.0000 33.0000 25.0000
v  24.0000 49.0000 25.0000
v  26.0000 49.0000 25.0000
v  26.0000 33.0000 25.0000
v  42.0000 33.0000 25.0000
v  42.0000 49.0000 25.0000
v  -42.0000 49.0000 25.0000
v  -42.0000 33.0000 25.0000
v  -26.0000 33.0000 25.0000
v  -26.0000 49.0000 25.0000
v  -25.9972 33.2434 24.9918
v  -25.9972 49.2434 24.9918
v  44.0000 40.0000 23.0000
v  44.0000 56.0000 23.0000
v  10.0000 40.0000 23.0000
v  10.0000 56.0000 23.0000
v  -10.0000 40.0000 23.0000
v  -10.0000 56.0000 23.0000
v  -44.0000 40.0000 23.0000
v  -44.0000 56.0000 23.0000
v  -52.0000 8.0000 -20.0000
v  -52.0000 8.0000 15.0000
v  -52.0000 56.0000 15.0000
v  -52.0000 56.0000 -20.0000
v  52.0000 56.0000 -20.0000
v  52.0000 56.0000 15.0000
v  52.0000 8.0000 15.0000
v  52.0000 8.0000 -20.0000
v  48.0000 58.0000 9.5000
v  48.0000 58.0000 -17.0000
v  48.0000 58.0000 13.6289
v  -48.0000 58.0000 21.0000
v  -48.0000 58.0000 -26.0000
v  -48.0000 58.0000 -17.0000
v  52.0000 8.0000 -28.0000
v  52.0000 56.0000 -28.0000
v  -52.0000 40.0000 23.0000
v  -52.0000 8.0000 23.0000
v  -52.0000 56.0000 -28.0000
v  -52.0000 8.0000 -28.0000
v  52.0000 40.0000 23.0000
v  52.0000 8.0000 23.0000
v  -52.0000 56.0000 23.0000
v  52.0000 56.0000 23.0000
v  42.0000 8.0000 23.0000
v  10.0000 28.0000 23.0000
v  -10.0000 28.0000 23.0000
v  -42.0000 8.0000 23.0000
v  12.0039 8.0000 23.0000
v  10.0000 8.0000 23.0000
v  -10.0000 8.0000 23.0000
v  -12.0039 8.0000 23.0000
v  -44.0000 8.0000 23.0000
v  44.0000 8.0000 23.0000
v  10.0000 2.0000 -2.0000
v  10.0000 2.0000 14.6094
v  10.0000 2.0000 21.0000
v  10.0000 2.0000 23.0000
v  -10.0000 2.0000 23.0000
v  -10.0000 2.0000 21.0000
v  -10.0000 2.0000 -2.0000
v  -4.3555 2.0000 14.6094
v  10.0000 28.0000 -2.0000
v  -10.0000 28.0000 -2.0000
v  13.0000 28.6367 24.0000
v  13.0000 28.6367 27.0000
v  27.0000 28.6367 24.0000
v  27.0000 28.6367 27.0000
v  41.0000 28.6367 24.0000
v  41.0000 28.6367 27.0000
v  13.0000 26.6367 27.0000
v  27.0000 26.6367 27.0000
v  41.0000 26.6367 27.0000
v  -13.0000 28.6367 27.0000
v  -13.0000 28.6367 24.0000
v  -27.0000 28.6367 27.0000
v  -27.0000 28.6367 24.0000
v  -41.0000 28.6367 27.0000
v  -41.0000 28.6367 24.0000
v  -13.0000 26.6367 27.0000
v  -27.0000 26.6367 27.0000
v  -41.0000 26.6367 27.0000
v  -13.0000 26.6367 24.0000
v  -41.0000 26.6367 24.0000
v  41.0000 26.6367 24.0000
v  43.0000 59.0000 -12.5000
v  41.0000 59.0000 -14.5000
v  37.0000 65.0000 -10.5000
v  39.0000 65.0000 -8.3320
v  21.0000 59.0000 -14.5000
v  19.0000 59.0000 -12.5000
v  23.0000 65.0000 -8.6680
v  25.0000 65.0000 -10.5000
v  37.0000 81.0000 5.5000
v  37.0000 65.0000 5.5000
v  39.0000 65.0000 3.5000
v  39.0000 81.0000 3.5000
v  40.8183 58.9981 9.5199
v  43.0000 59.0000 7.5000
v  23.0000 81.0000 3.5000
v  23.0000 65.0000 3.5000
v  25.0000 65.0000 5.5000
v  25.0000 81.0000 5.5000
v  19.0000 59.0000 7.5000
v  21.0000 59.0000 9.5000
v  22.8891 81.0854 -8.5939
v  13.0000 26.6367 24.0000
v  39.0000 81.0000 -8.3320
v  31.0000 81.0000 -2.4883
v  24.9763 81.0193 -10.5317
v  37.0000 81.0000 -10.5000
v  39.0000 80.9902 -8.3320
v  37.0000 80.9902 -10.5000
v  37.0000 80.9863 -10.5000
v  25.0000 80.9863 -10.5000
v  -51.9931 1.5081 -18.8975
v  -51.9931 1.5081 16.1025
v  -52.0000 2.0000 15.0000
v  -52.0000 2.0000 -20.0000
v  52.0000 2.0000 -28.0000
v  -52.0752 2.0000 -28.0000
v  -52.0752 8.0000 -28.0000
v  -52.0000 64.0000 -32.0000
v  -54.0000 64.0000 -30.0000
v  -48.0000 64.0000 -26.0000
v  -54.0000 64.0000 25.0000
v  -52.0000 64.0000 27.0000
v  15.0000 27.6367 24.5000
v  15.0000 11.6367 24.5000
v  27.0000 11.6367 24.5000
v  27.0000 27.6367 24.5000
v  -15.0000 27.6367 24.5000
v  -15.0000 11.6367 24.5000
v  -27.0000 11.6367 24.5000
v  -27.0000 27.6367 24.5000
v  -39.0000 27.6367 24.5000
v  -39.0000 11.6367 24.5000
v  39.0000 11.6367 24.5000
v  39.0000 27.6367 24.5000
v  52.0000 52.0000 27.0000
v  54.0000 52.0000 25.0000
v  54.0000 64.0000 25.0000
v  52.0000 64.0000 27.0000
v  -54.0000 52.0000 -30.0000
v  -54.0000 52.0000 25.0000
v  48.0000 64.0000 -26.0000
v  52.0000 64.0000 -32.0000
v  54.0000 52.0000 -30.0000
v  54.0000 64.0000 -30.0000
v  -52.0000 52.0000 27.0000
v  12.0039 2.0000 23.0000
v  -42.0000 2.0000 23.0000
v  -12.0039 2.0000 23.0000
v  -44.0000 2.0000 23.0000
v  42.0000 2.0000 23.0000
v  52.0000 2.0000 -20.0000
v  44.0000 2.0000 23.0000
v  -52.0000 2.0000 23.0000
v  52.0000 2.0000 23.0000
v  52.0000 2.0000 15.0000
v  -52.0000 2.0000 -28.0000
v  -54.2312 52.0000 -30.0000
v  52.0000 52.0272 -32.0000
v  -54.0000 52.0921 -30.0000
v  -52.0000 52.0921 -32.0000
# 193 vertices

vn 0.0000 0.0000 -1.0000
vn 0.0000 1.0000 -0.0000
vn 0.0000 0.0000 1.0000
vn 0.9444 0.0000 0.3287
vn -1.0000 0.0000 -0.0000
vn 1.0000 0.0000 -0.0000
vn 0.0000 0.0000 -0.0000
vn 0.5218 0.6897 -0.5021
vn 0.5217 0.6897 -0.5021
vn -0.5059 0.6820 -0.5281
vn 0.7071 0.0000 0.7071
vn 0.5195 0.6784 0.5195
vn 0.4942 0.6857 0.5344
vn -0.7071 0.0000 0.7071
vn -0.5145 0.6860 0.5145
vn -1.0000 0.0001 -0.0000
vn -0.8321 0.5547 -0.0000
vn -0.0008 0.5561 0.8311
vn 0.0000 0.5547 0.8321
vn 0.8321 0.5547 -0.0000
vn 0.0000 0.5547 -0.8321
vn 0.7246 -0.0045 -0.6892
vn 0.7319 0.0152 -0.6813
vn 0.7357 -0.0158 -0.6771
vn 0.7242 -0.0012 -0.6896
vn -0.6900 -0.0065 -0.7238
vn -0.6815 0.0144 -0.7316
vn -0.6767 -0.0188 -0.7360
vn -0.6904 -0.0034 -0.7235
vn -0.9999 -0.0140 -0.0000
vn 0.7071 0.0000 -0.7071
vn -0.7071 0.0000 -0.7071
# 32 vertex normals

vt 0.0000 0.0000 0.0000
vt -5.8828 1.9922 0.0000
vt -5.8828 -3.8828 0.0000
vt 6.1172 -3.8828 0.0000
vt 6.1172 1.9922 0.0000
vt 0.2188 -0.0938 0.0000
vt 0.2188 -0.9062 0.0000
vt 0.7812 -0.9062 0.0000
vt 0.7812 -0.0938 0.0000
vt 0.0000 0.0625 0.0000
vt 0.0000 -0.9375 0.0000
vt 0.9375 -0.9375 0.0000
vt 0.9375 0.0625 0.0000
vt 3.7500 -0.9062 0.0000
vt 3.7500 0.0898 0.0000
vt 1.6250 -0.9062 0.0000
vt 1.6250 0.0898 0.0000
vt 0.3750 -0.9062 0.0000
vt 0.3750 0.0898 0.0000
vt -1.7500 -0.9062 0.0000
vt -1.7500 0.0898 0.0000
vt 1.5938 -1.9141 0.0000
vt -0.5938 -1.9141 0.0000
vt -0.5938 1.0859 0.0000
vt 1.5938 1.0859 0.0000
vt 1.0000 -0.8320 0.0000
vt 1.0000 0.0000 0.0000
vt 1.0000 -1.0000 0.0000
vt 0.0000 -0.8320 0.0000
vt 0.0000 -0.1406 0.0000
vt 0.0703 -2.0000 0.0000
vt 0.9688 -2.0000 0.0000
vt 0.9688 1.0000 0.0000
vt 0.0703 1.0000 0.0000
vt 0.0703 0.0000 0.0000
vt 0.9297 1.0000 0.0000
vt 0.9297 -2.0000 0.0000
vt 0.9375 1.0000 0.0000
vt 0.0625 1.0000 0.0000
vt 0.0625 0.0039 0.0000
vt 0.9375 0.0039 0.0000
vt 2.6531 2.6166 0.0000
vt -1.6507 2.5957 0.0000
vt -1.5880 -1.6154 0.0000
vt 2.6531 -1.6258 0.0000
vt 3.6250 -0.9551 0.0000
vt 3.7500 0.0469 0.0000
vt 1.6250 -0.3301 0.0000
vt 1.6250 0.0469 0.0000
vt 0.3750 -0.3301 0.0000
vt 0.3750 0.0469 0.0000
vt -1.6250 -0.9551 0.0000
vt -1.7500 0.0469 0.0000
vt 1.7500 -0.9551 0.0000
vt 1.6250 -0.9551 0.0000
vt 0.3750 -0.9551 0.0000
vt 0.2500 -0.9551 0.0000
vt -1.7500 -0.9551 0.0000
vt 3.7500 -0.9551 0.0000
vt 0.5625 -0.2500 0.0000
vt 0.5547 -0.2500 0.0000
vt 0.8359 -0.7500 0.0000
vt 0.8438 -0.7500 0.0000
vt 0.8516 -0.7500 0.0000
vt 0.7812 -0.2578 0.0000
vt 0.8438 -0.2578 0.0000
vt 0.7812 -0.2188 0.0000
vt 0.8438 -0.2188 0.0000
vt 0.9062 -0.2578 0.0000
vt 0.9688 -0.2578 0.0000
vt 0.9062 -0.2188 0.0000
vt 0.9688 -0.2188 0.0000
vt 0.0781 -0.0586 0.0000
vt 0.0781 -0.0742 0.0000
vt 0.0938 -0.0742 0.0000
vt 0.0938 -0.0586 0.0000
vt 0.9688 -0.0312 0.0000
vt 0.9688 -0.1562 0.0000
vt 0.5938 -0.1562 0.0000
vt 0.5938 -0.0312 0.0000
vt 0.4062 -0.0312 0.0000
vt 0.4062 -0.9688 0.0000
vt 0.0430 -0.9688 0.0000
vt 0.0430 -0.0312 0.0000
vt 0.1406 -0.0312 0.0000
vt 0.1406 -0.9688 0.0000
vt 0.9688 -0.8750 0.0000
vt 0.9688 -0.9258 0.0000
vt 0.5938 -0.9180 0.0000
vt 0.5938 -0.8867 0.0000
vt 0.9688 -0.7656 0.0000
vt 0.9688 -0.6875 0.0000
vt 0.5938 -0.7031 0.0000
vt 0.5938 -0.7500 0.0000
vt 0.3164 -0.0312 0.0000
vt 0.2461 -0.0312 0.0000
vt 0.2461 -0.9688 0.0000
vt 0.3164 -0.9688 0.0000
vt 0.5000 -0.3984 0.0000
vt 0.4883 -0.9609 0.0000
vt 0.5156 -0.9609 0.0000
vt 0.6562 -0.5938 0.0000
vt 0.8438 -0.5938 0.0000
vt 0.6562 -0.9492 0.0000
vt 0.6562 -0.9531 0.0000
vt 0.7852 -0.9453 0.0000
vt 0.6562 -0.9453 0.0000
vt 0.5703 -0.9688 0.0000
vt 0.5742 -0.9688 0.0000
vt 0.5703 -0.9414 0.0000
vt 0.5742 -0.9336 0.0000
vt 0.5547 -0.9414 0.0000
vt 0.5508 -0.9336 0.0000
vt 0.5547 -0.9688 0.0000
vt 0.5508 -0.9688 0.0000
vt 0.8477 0.0312 0.0000
vt 0.8477 0.1562 0.0000
vt 0.8438 0.2227 0.0000
vt 0.9688 0.2227 0.0000
vt 0.9688 0.2148 0.0000
vt 0.8438 0.2148 0.0000
vt 0.7852 -0.8672 0.0000
vt 0.6562 -0.8633 0.0000
vt 0.6562 -0.8672 0.0000
vt 0.8438 -0.9102 0.0000
vt 0.8438 -0.8633 0.0000
vt 0.8516 -0.8633 0.0000
vt 0.8516 -0.9102 0.0000
vt 0.9023 -0.9102 0.0000
vt 0.9023 -0.8633 0.0000
vt 0.9102 -0.8633 0.0000
vt 0.9102 -0.9102 0.0000
vt 0.8711 -0.9688 0.0000
vt 0.9414 -0.9688 0.0000
vt 0.9414 -0.8438 0.0000
vt 0.8711 -0.8438 0.0000
vt 0.7148 -0.5938 0.0000
vt 0.7227 -0.5938 0.0000
vt 0.7227 -0.2188 0.0000
vt 0.7148 -0.2188 0.0000
vt 0.7852 -0.5938 0.0000
vt 0.7773 -0.5938 0.0000
vt 0.7773 -0.2188 0.0000
vt 0.7852 -0.2188 0.0000
vt 0.8477 -0.5938 0.0000
vt 0.8477 -0.2188 0.0000
vt 0.4688 -2.0000 0.0000
vt 0.4688 0.0039 0.0000
vt 0.0312 0.0039 0.0000
vt 0.0312 -2.0000 0.0000
vt 0.6562 -0.2188 0.0000
vt 0.9297 -0.5938 0.0000
vt 0.9297 -0.2188 0.0000
vt 0.9648 -0.2188 0.0000
vt 0.9648 -0.5938 0.0000
# 155 texture coords

o Oak_Pokemon_Research_Lab
g Oak_Pokemon_Research_Lab
usemtl lambert1
s off
f 1/1/1 2/1/1 3/1/1 
f 3/1/1 4/1/1 1/1/1 
usemtl mt_okl01
f 5/2/2 3/3/2 2/4/2 
f 2/4/2 6/5/2 5/2/2 
usemtl h_mado
f 7/6/3 8/7/3 9/8/3 
f 9/8/3 10/9/3 7/6/3 
f 11/6/3 12/7/3 13/8/3 
f 13/8/3 14/9/3 11/6/3 
f 15/6/3 16/7/3 17/8/3 
f 17/8/3 18/9/3 15/6/3 
f 19/6/3 20/7/3 21/8/3 
f 21/8/3 22/9/3 19/6/3 
usemtl mt_okl02
f 23/10/3 24/11/3 25/12/3 
f 25/12/3 26/13/3 23/10/3 
f 27/10/3 28/11/3 29/12/3 
f 29/12/3 30/13/3 27/10/3 
f 31/10/3 32/11/3 33/12/3 
f 33/12/3 34/13/3 31/10/3 
f 35/10/3 36/11/3 37/12/3 
f 37/12/3 38/13/3 35/10/3 
f 39/12/4 40/13/4 38/13/4 
f 38/13/4 37/12/4 39/12/4 
usemtl mt_okl06
f 41/14/3 42/15/3 43/16/3 
f 42/15/3 44/17/3 43/16/3 
f 43/16/3 44/17/3 45/18/3 
f 44/17/3 46/19/3 45/18/3 
f 45/18/3 46/19/3 47/20/3 
f 46/19/3 48/21/3 47/20/3 
f 49/22/5 50/23/5 51/24/5 
f 51/24/5 52/25/5 49/22/5 
f 53/25/6 54/24/6 55/23/6 
f 55/23/6 56/22/6 53/25/6 
usemtl h_kage
f 57/26/7 58/27/7 59/28/7 
f 60/29/7 61/1/7 62/30/7 
usemtl mt_okl07
f 56/31/6 63/32/6 64/33/6 
f 64/33/6 53/34/6 56/31/6 
f 65/35/5 51/36/5 50/37/5 
f 50/37/5 66/31/5 65/35/5 
f 52/34/5 67/33/5 68/32/5 
f 68/32/5 49/31/5 52/34/5 
f 55/37/6 54/36/6 69/35/6 
f 69/35/6 70/31/6 55/37/6 
f 48/38/3 71/39/3 65/40/3 
f 65/40/3 47/41/3 48/38/3 
f 69/40/3 72/39/3 42/38/3 
f 42/38/3 41/41/3 69/40/3 
f 51/36/5 65/35/5 71/34/5 
f 69/35/6 54/36/6 72/34/6 
f 67/42/1 64/43/1 63/44/1 
f 63/44/1 68/45/1 67/42/1 
usemtl mt_okl03
f 73/46/3 41/47/3 74/48/3 
f 41/47/3 43/49/3 74/48/3 
f 74/48/3 43/49/3 75/50/3 
f 43/49/3 45/51/3 75/50/3 
f 75/50/3 45/51/3 76/52/3 
f 45/51/3 47/53/3 76/52/3 
f 73/46/3 74/48/3 77/54/3 
f 74/48/3 78/55/3 77/54/3 
f 79/56/3 75/50/3 80/57/3 
f 75/50/3 76/52/3 80/57/3 
f 76/52/3 47/53/3 81/58/3 
f 73/46/3 82/59/3 41/47/3 
usemtl h_in
f 83/60/5 84/60/5 78/60/5 
f 84/60/5 85/60/5 78/60/5 
f 78/60/5 85/60/5 86/60/5 
f 87/60/6 88/60/6 79/60/6 
f 88/60/6 89/60/6 79/60/6 
f 88/60/2 90/60/2 89/60/2 
f 90/60/2 83/61/2 89/60/2 
f 78/60/5 74/60/5 91/60/5 
f 91/60/5 83/60/5 78/60/5 
f 85/62/2 84/62/2 90/63/2 
f 90/63/2 88/64/2 85/62/2 
f 79/60/6 89/60/6 92/60/6 
f 92/60/6 75/60/6 79/60/6 
f 92/60/3 89/60/3 83/60/3 
f 83/60/3 91/60/3 92/60/3 
f 83/61/2 90/60/2 84/61/2 
usemtl mt_okl05
f 93/65/2 94/66/2 95/67/2 
f 94/66/2 96/68/2 95/67/2 
f 95/67/2 96/68/2 97/65/2 
f 96/68/2 98/66/2 97/65/2 
f 94/69/3 99/70/3 96/71/3 
f 99/70/3 100/72/3 96/71/3 
f 96/71/3 100/72/3 98/69/3 
f 100/72/3 101/70/3 98/69/3 
f 102/66/2 103/65/2 104/68/2 
f 103/65/2 105/67/2 104/68/2 
f 104/68/2 105/67/2 106/66/2 
f 105/67/2 107/65/2 106/66/2 
f 108/70/3 102/69/3 109/72/3 
f 102/69/3 104/71/3 109/72/3 
f 109/72/3 104/71/3 110/70/3 
f 104/71/3 106/69/3 110/70/3 
f 108/73/6 111/74/6 103/75/6 
f 103/75/6 102/76/6 108/73/6 
f 112/73/5 110/74/5 106/75/5 
f 106/75/5 107/76/5 112/73/5 
f 101/73/6 113/74/6 97/75/6 
f 97/75/6 98/76/6 101/73/6 
f 114/77/8 115/78/9 116/79/8 
f 116/79/8 117/80/8 114/77/8 
f 118/78/10 119/77/10 120/80/10 
f 120/80/10 121/79/10 118/78/10 
f 122/81/11 123/82/11 124/82/11 
f 124/82/11 125/81/11 122/81/11 
f 124/80/12 123/79/12 126/78/12 
f 126/78/13 127/77/13 124/80/13 
f 128/81/14 129/82/14 130/82/14 
f 130/82/14 131/81/14 128/81/14 
f 130/79/15 129/80/15 132/77/15 
f 132/77/15 133/78/15 130/79/15 
f 129/83/5 128/84/16 134/85/5 
f 134/85/5 120/86/5 129/83/5 
f 135/73/5 99/74/5 94/75/5 
f 94/75/5 93/76/5 135/73/5 
f 119/87/17 132/88/17 129/89/17 
f 129/89/17 120/90/17 119/87/17 
f 133/91/18 126/92/18 123/93/18 
f 123/93/19 130/94/19 133/91/19 
f 127/88/20 114/87/20 117/90/20 
f 117/90/20 124/89/20 127/88/20 
f 115/91/21 118/92/21 121/93/21 
f 121/93/21 116/94/21 115/91/21 
f 136/85/6 125/84/6 124/83/6 
f 124/83/6 117/86/6 136/85/6 
f 122/95/3 131/96/3 130/97/3 
f 130/97/3 123/98/3 122/95/3 
f 137/99/2 131/100/2 122/101/2 
f 138/101/2 137/99/2 139/100/2 
f 139/101/2 137/99/2 136/100/2 
f 137/99/2 122/100/2 125/101/2 
f 134/101/2 137/99/2 138/100/2 
f 137/99/2 128/100/2 131/101/2 
f 134/100/2 128/101/2 137/99/2 
f 136/101/2 137/99/2 125/100/2 
f 140/80/22 117/80/23 116/79/24 
f 116/79/24 141/79/25 140/80/22 
f 138/79/26 121/79/27 120/80/28 
f 120/80/28 134/80/29 138/79/26 
f 142/94/1 116/94/1 121/93/1 
f 121/93/1 143/93/1 142/94/1 
usemtl mt_okl04
f 144/102/30 145/102/30 146/102/30 
f 146/102/30 147/102/30 144/102/30 
f 148/103/1 149/103/1 150/68/1 
f 150/68/1 63/68/1 148/103/1 
f 151/104/2 152/105/2 153/106/2 
f 154/107/2 155/105/2 4/106/2 
f 7/108/3 156/109/3 8/110/3 
f 156/109/3 157/111/3 8/110/3 
f 8/110/3 157/111/3 9/112/3 
f 157/111/3 158/113/3 9/112/3 
f 9/112/3 158/113/3 10/114/3 
f 158/113/3 159/115/3 10/114/3 
f 160/109/3 22/108/3 161/111/3 
f 22/108/3 21/110/3 161/111/3 
f 161/111/3 21/110/3 162/113/3 
f 21/110/3 20/112/3 162/113/3 
f 162/113/3 20/112/3 163/115/3 
f 20/112/3 19/114/3 163/115/3 
f 15/108/3 164/109/3 16/110/3 
f 164/109/3 165/111/3 16/110/3 
f 16/110/3 165/111/3 17/112/3 
f 165/111/3 162/113/3 17/112/3 
f 17/112/3 162/113/3 18/114/3 
f 162/113/3 163/115/3 18/114/3 
f 11/114/3 159/115/3 12/112/3 
f 159/115/3 158/113/3 12/112/3 
f 12/112/3 158/113/3 13/110/3 
f 158/113/3 166/111/3 13/110/3 
f 13/110/3 166/111/3 14/108/3 
f 166/111/3 167/109/3 14/108/3 
f 168/116/11 169/116/11 170/117/11 
f 170/117/11 171/117/11 168/116/11 
f 152/118/5 172/119/5 173/120/5 
f 173/120/5 154/121/5 152/118/5 
f 153/122/2 152/123/2 154/107/2 
f 154/107/2 4/106/2 153/122/2 
f 174/122/2 175/124/2 151/104/2 
f 151/104/2 153/106/2 174/122/2 
f 153/125/3 5/126/3 6/127/3 
f 6/127/3 174/128/3 153/125/3 
f 4/129/6 3/130/6 5/131/6 
f 5/131/6 153/132/6 4/129/6 
f 174/132/5 6/131/5 2/130/5 
f 2/130/5 1/129/5 174/132/5 
f 170/121/6 169/120/6 176/119/6 
f 176/119/6 177/118/6 170/121/6 
f 178/133/3 168/134/3 171/135/3 
f 171/135/3 155/136/3 178/133/3 
f 170/124/2 177/105/2 174/106/2 
f 174/106/2 1/122/2 170/124/2 
f 4/122/2 155/123/2 171/105/2 
f 171/105/2 1/106/2 4/122/2 
f 155/117/14 154/117/14 173/116/14 
f 173/116/14 178/116/14 155/117/14 
f 86/137/3 179/138/3 77/139/3 
f 77/139/3 78/140/3 86/137/3 
f 180/141/3 181/142/3 80/143/3 
f 80/143/3 76/144/3 180/141/3 
f 182/145/3 180/103/3 76/68/3 
f 76/68/3 81/146/3 182/145/3 
f 179/142/3 183/141/3 73/144/3 
f 73/144/3 77/143/3 179/142/3 
f 81/147/3 47/148/3 65/149/3 
f 65/149/3 66/150/3 81/147/3 
f 70/150/3 69/149/3 41/148/3 
f 41/148/3 82/147/3 70/150/3 
f 63/68/6 56/146/6 184/145/6 
f 184/145/6 148/103/6 63/68/6 
f 50/151/5 49/151/5 147/102/5 
f 147/102/5 146/102/5 50/151/5 
f 185/145/3 82/146/3 73/68/3 
f 73/68/3 183/103/3 185/145/3 
f 182/152/3 81/153/3 66/154/3 
f 66/154/3 186/155/3 182/152/3 
f 187/155/3 70/154/3 82/153/3 
f 82/153/3 185/152/3 187/155/3 
f 87/137/3 79/140/3 80/139/3 
f 80/139/3 181/138/3 87/137/3 
f 55/151/6 188/102/6 184/102/6 
f 184/102/6 56/151/6 55/151/6 
f 50/146/5 146/145/5 186/103/5 
f 186/103/5 66/68/5 50/146/5 
f 68/68/5 189/103/5 147/145/5 
f 147/145/5 49/146/5 68/68/5 
f 70/68/6 187/103/6 188/145/6 
f 188/145/6 55/146/6 70/68/6 
f 177/123/2 175/124/2 174/122/2 
f 171/123/2 170/124/2 1/122/2 
f 190/119/3 176/119/3 176/119/3 
f 176/119/3 190/119/3 190/119/3 
f 191/124/31 175/124/31 177/123/31 
f 177/123/31 176/123/31 191/124/31 
f 192/105/32 152/105/32 151/104/32 
f 151/104/32 193/104/32 192/105/32 
f 151/124/1 175/124/1 191/124/1 
f 191/124/1 193/124/1 151/124/1 
# 238 faces

