# 3ds Max Wavefront OBJ Exporter v0.99 - (c)2007 guruware
# File Created: 27.05.2023 01:32:52

mtllib LucarioCola.mtl

#
# object Cola001
#

v  0.0683 3.0580 -0.3697
v  0.0683 3.0491 -0.4447
v  0.1615 3.0892 -0.3799
v  0.1667 3.0853 -0.4480
v  0.0683 3.0225 -0.6294
v  0.2223 3.2047 -0.3840
v  0.1812 3.0699 -0.6294
v  0.2028 3.0389 -1.0237
v  0.0683 2.9818 -1.0237
v  0.2263 3.2048 -0.4534
v  0.1661 3.2931 -0.3875
v  0.2263 3.0083 -1.4285
v  0.0683 2.9512 -1.4285
v  0.1692 3.2987 -0.4556
v  0.0683 3.3403 -0.3875
v  0.2766 3.2054 -1.0237
v  0.2459 3.2051 -0.6294
v  0.2458 2.9769 -1.8517
v  0.0683 2.9198 -1.8517
v  0.0683 3.3505 -0.4556
v  0.3123 3.2053 -1.4285
v  0.1801 3.3161 -0.6294
v  0.2003 3.3452 -1.0237
v  0.0683 2.8916 -2.2896
v  0.3444 3.2055 -1.8517
v  0.0683 3.3796 -0.6294
v  0.2225 3.3812 -1.4285
v  0.0683 3.4223 -1.0237
v  0.2713 2.9487 -2.2896
v  0.0683 2.8676 -2.7443
v  0.0683 3.4634 -1.4285
v  0.3830 3.2058 -2.2896
v  0.2405 3.4188 -1.8517
v  0.2868 2.9247 -2.7443
v  0.2917 2.9106 -3.1130
v  0.0683 2.8535 -3.1130
v  0.0683 3.5027 -1.8517
v  0.2645 3.4612 -2.2896
v  0.4122 3.2058 -2.7443
v  0.0683 2.8482 -3.2623
v  0.0683 3.5453 -2.2896
v  0.4441 3.2133 -3.1956
v  0.2784 3.4943 -2.7443
v  0.3004 2.9053 -3.2718
v  0.2835 2.8015 -3.4279
v  0.0683 2.7534 -3.4080
v  0.0683 3.5785 -2.7443
v  0.2917 3.5418 -3.2775
v  0.2462 2.5738 -3.6795
v  0.0683 2.5379 -3.6579
v  0.4523 3.2231 -3.3853
v  0.4315 3.1258 -3.6067
v  0.0683 3.6259 -3.2957
v  0.1974 2.2790 -3.9587
v  0.0683 2.2529 -3.9323
v  0.3605 2.8173 -3.8887
v  0.3004 3.5780 -3.5417
v  0.0918 2.0377 -4.1479
v  0.0683 2.0342 -4.1414
v  0.2532 2.3946 -4.0804
v  0.2835 3.4579 -3.7930
v  0.2502 3.0272 -4.0690
v  0.0683 3.6656 -3.5833
v  0.0683 1.9994 -4.1784
v  0.1028 2.0480 -4.1701
v  0.1812 2.4986 -4.2073
v  0.0683 3.5288 -3.8428
v  0.0683 3.0569 -4.0992
v  0.0893 2.0599 -4.1921
v  0.0683 2.0658 -4.1983
v  0.0683 2.5223 -4.2279
v  -0.0250 3.0892 -0.3799
v  -0.0302 3.0853 -0.4480
v  -0.0857 3.2047 -0.3840
v  -0.0898 3.2048 -0.4534
v  -0.0296 3.2931 -0.3875
v  -0.0447 3.0699 -0.6294
v  -0.0663 3.0389 -1.0237
v  -0.0327 3.2987 -0.4556
v  -0.0898 3.0083 -1.4285
v  -0.1401 3.2054 -1.0237
v  -0.1758 3.2053 -1.4285
v  -0.1094 3.2051 -0.6294
v  -0.0638 3.3452 -1.0237
v  -0.2079 3.2055 -1.8517
v  -0.0859 3.3812 -1.4285
v  -0.0435 3.3161 -0.6294
v  -0.1093 2.9769 -1.8517
v  -0.1040 3.4188 -1.8517
v  -0.2465 3.2058 -2.2896
v  -0.1348 2.9487 -2.2896
v  -0.1280 3.4612 -2.2896
v  -0.1503 2.9247 -2.7443
v  -0.1552 2.9106 -3.1130
v  -0.1419 3.4943 -2.7443
v  -0.2757 3.2058 -2.7443
v  -0.1552 3.5418 -3.2775
v  -0.3075 3.2133 -3.1956
v  -0.1639 2.9053 -3.2718
v  -0.1470 2.8015 -3.4279
v  -0.1639 3.5780 -3.5417
v  -0.1097 2.5738 -3.6795
v  -0.2950 3.1258 -3.6067
v  -0.2240 2.8173 -3.8887
v  -0.3158 3.2231 -3.3853
v  -0.1470 3.4579 -3.7930
v  -0.1137 3.0272 -4.0690
v  -0.1167 2.3946 -4.0804
v  -0.0447 2.4986 -4.2073
v  -0.0609 2.2790 -3.9587
v  0.0472 2.0599 -4.1921
v  0.0447 2.0377 -4.1479
v  0.0337 2.0480 -4.1701
# 113 vertices

vn 0.0000 -0.8162 -0.5778
vn -0.0000 -0.9923 0.1241
vn 0.4412 -0.6275 -0.6416
vn 0.6677 -0.7369 0.1060
vn 0.0000 -0.9936 0.1134
vn 0.5956 -0.0032 -0.8032
vn 0.6882 -0.7185 0.1006
vn 0.6984 -0.7096 0.0938
vn 0.0000 -0.9952 0.0980
vn 0.9947 0.0493 0.0904
vn 0.4724 0.5326 -0.7023
vn 0.6845 -0.7240 0.0852
vn 0.0000 -0.9967 0.0808
vn 0.6749 0.7303 0.1055
vn 0.0000 0.7113 -0.7029
vn 0.9956 0.0397 0.0851
vn 0.9942 0.0431 0.0981
vn 0.6680 -0.7399 0.0799
vn 0.0000 -0.9976 0.0690
vn 0.0000 0.9892 0.1464
vn 0.9959 0.0313 0.0843
vn 0.6934 0.7128 0.1056
vn 0.7148 0.6935 0.0903
vn -0.0000 -0.9979 0.0644
vn 0.9962 0.0239 0.0840
vn -0.0000 0.9911 0.1332
vn 0.7138 0.6944 0.0916
vn -0.0000 0.9938 0.1115
vn 0.6550 -0.7520 0.0734
vn 0.0000 -0.9988 0.0497
vn -0.0000 0.9946 0.1036
vn 0.9969 0.0139 0.0773
vn 0.7066 0.7012 0.0946
vn 0.6467 -0.7611 0.0498
vn 0.6300 -0.7749 0.0514
vn 0.0000 -0.9993 0.0369
vn 0.0000 0.9946 0.1041
vn 0.6964 0.7125 0.0857
vn 0.9981 0.0016 0.0618
vn 0.0000 -0.9517 0.3069
vn -0.0000 0.9960 0.0893
vn 0.9984 -0.0058 0.0569
vn 0.6875 0.7220 0.0771
vn 0.6926 -0.6961 0.1890
vn 0.6679 -0.6293 0.3973
vn 0.0000 -0.7984 0.6022
vn 0.0000 0.9965 0.0841
vn 0.6743 0.7319 0.0980
vn 0.6713 -0.5828 0.4579
vn 0.0000 -0.7307 0.6827
vn 0.9992 0.0381 -0.0074
vn 0.9913 -0.0332 -0.1276
vn 0.0000 0.9932 0.1162
vn 0.7010 -0.5730 0.4246
vn -0.0000 -0.6927 0.7212
vn 0.9748 -0.1139 -0.1920
vn 0.6814 0.7219 -0.1206
vn 0.6049 -0.6614 0.4434
vn 0.0000 -0.7085 0.7058
vn 0.9406 -0.2301 -0.2497
vn 0.6666 0.5236 -0.5305
vn 0.5994 0.2756 -0.7515
vn 0.0000 0.9823 -0.1873
vn 0.0000 -0.9669 -0.2553
vn 0.8593 -0.4398 -0.2610
vn 0.5569 0.0109 -0.8305
vn -0.0000 0.7188 -0.6952
vn -0.0000 0.3859 -0.9225
vn 0.5178 -0.2375 -0.8219
vn -0.0000 -0.1691 -0.9856
vn -0.0000 0.0992 -0.9951
vn -0.4412 -0.6275 -0.6416
vn -0.6677 -0.7369 0.1060
vn -0.5956 -0.0032 -0.8032
vn -0.9947 0.0493 0.0904
vn -0.4724 0.5326 -0.7023
vn -0.6882 -0.7185 0.1006
vn -0.6984 -0.7096 0.0938
vn -0.6749 0.7303 0.1055
vn -0.6845 -0.7240 0.0852
vn -0.9956 0.0397 0.0851
vn -0.9959 0.0313 0.0843
vn -0.9942 0.0431 0.0981
vn -0.7148 0.6935 0.0903
vn -0.9962 0.0239 0.0840
vn -0.7138 0.6944 0.0916
vn -0.6934 0.7128 0.1056
vn -0.6680 -0.7399 0.0799
vn -0.7066 0.7012 0.0946
vn -0.9969 0.0139 0.0773
vn -0.6550 -0.7520 0.0734
vn -0.6964 0.7125 0.0857
vn -0.6467 -0.7611 0.0498
vn -0.6300 -0.7749 0.0514
vn -0.6875 0.7220 0.0771
vn -0.9981 0.0016 0.0618
vn -0.6743 0.7319 0.0980
vn -0.9984 -0.0058 0.0569
vn -0.6926 -0.6961 0.1890
vn -0.6679 -0.6293 0.3973
vn -0.6814 0.7219 -0.1206
vn -0.6713 -0.5828 0.4579
vn -0.9913 -0.0332 -0.1276
vn -0.9748 -0.1139 -0.1920
vn -0.9992 0.0381 -0.0074
vn -0.6666 0.5236 -0.5305
vn -0.5994 0.2756 -0.7515
vn -0.9406 -0.2301 -0.2497
vn -0.5569 0.0109 -0.8305
vn -0.7010 -0.5730 0.4246
vn -0.5178 -0.2375 -0.8219
vn -0.6049 -0.6614 0.4434
vn -0.8593 -0.4398 -0.2610
vn -0.0036 -0.0376 -0.9993
vn 0.0179 -0.0371 -0.9992
vn -0.0125 -0.0258 -0.9996
vn 0.0015 -0.0389 -0.9992
vn 0.0000 -0.0357 -0.9994
vn 0.0000 -0.3095 -0.9509
# 119 vertex normals

vt 0.4570 0.5678 0.0000
vt 0.4543 0.5678 0.0000
vt 0.4570 0.5600 0.0000
vt 0.4543 0.5598 0.0000
vt 0.4476 0.5694 0.0000
vt 0.4570 0.5489 0.0000
vt 0.4476 0.5603 0.0000
vt 0.4333 0.5626 0.0000
vt 0.4333 0.5735 0.0000
vt 0.4543 0.5489 0.0000
vt 0.4570 0.5402 0.0000
vt 0.4185 0.5650 0.0000
vt 0.4185 0.5775 0.0000
vt 0.4543 0.5400 0.0000
vt 0.4570 0.5314 0.0000
vt 0.4333 0.5489 0.0000
vt 0.4476 0.5489 0.0000
vt 0.4030 0.5675 0.0000
vt 0.4030 0.5814 0.0000
vt 0.4543 0.5310 0.0000
vt 0.4185 0.5489 0.0000
vt 0.4476 0.5390 0.0000
vt 0.4333 0.5369 0.0000
vt 0.3871 0.5850 0.0000
vt 0.4030 0.5489 0.0000
vt 0.4476 0.5293 0.0000
vt 0.4185 0.5342 0.0000
vt 0.4333 0.5255 0.0000
vt 0.3871 0.5694 0.0000
vt 0.3705 0.5871 0.0000
vt 0.4185 0.5211 0.0000
vt 0.3871 0.5489 0.0000
vt 0.4030 0.5311 0.0000
vt 0.3705 0.5711 0.0000
vt 0.3578 0.5732 0.0000
vt 0.3587 0.5893 0.0000
vt 0.4030 0.5168 0.0000
vt 0.3871 0.5281 0.0000
vt 0.3705 0.5489 0.0000
vt 0.3533 0.5910 0.0000
vt 0.3871 0.5123 0.0000
vt 0.3539 0.5489 0.0000
vt 0.3705 0.5256 0.0000
vt 0.3519 0.5740 0.0000
vt 0.3451 0.5809 0.0000
vt 0.3478 0.5967 0.0000
vt 0.3705 0.5088 0.0000
vt 0.3508 0.5225 0.0000
vt 0.3342 0.5957 0.0000
vt 0.3369 0.6083 0.0000
vt 0.3468 0.5491 0.0000
vt 0.3392 0.5544 0.0000
vt 0.3506 0.5047 0.0000
vt 0.3214 0.6131 0.0000
vt 0.3233 0.6223 0.0000
vt 0.3281 0.5735 0.0000
vt 0.3410 0.5209 0.0000
vt 0.3118 0.6282 0.0000
vt 0.3120 0.6300 0.0000
vt 0.3183 0.6016 0.0000
vt 0.3326 0.5274 0.0000
vt 0.3216 0.5561 0.0000
vt 0.3400 0.5022 0.0000
vt 0.3101 0.6305 0.0000
vt 0.3112 0.6266 0.0000
vt 0.3135 0.5925 0.0000
vt 0.3281 0.5134 0.0000
vt 0.3158 0.5487 0.0000
vt 0.3102 0.6257 0.0000
vt 0.3094 0.6255 0.0000
vt 0.3094 0.5895 0.0000
vt 0.0448 0.5678 0.0000
vt 0.0448 0.5600 0.0000
vt 0.0474 0.5678 0.0000
vt 0.0474 0.5598 0.0000
vt 0.0448 0.5489 0.0000
vt 0.0541 0.5694 0.0000
vt 0.0474 0.5489 0.0000
vt 0.0448 0.5402 0.0000
vt 0.0541 0.5603 0.0000
vt 0.0684 0.5626 0.0000
vt 0.0684 0.5735 0.0000
vt 0.0474 0.5400 0.0000
vt 0.0448 0.5314 0.0000
vt 0.0832 0.5650 0.0000
vt 0.0684 0.5489 0.0000
vt 0.0832 0.5489 0.0000
vt 0.0541 0.5489 0.0000
vt 0.0474 0.5310 0.0000
vt 0.0832 0.5775 0.0000
vt 0.0684 0.5369 0.0000
vt 0.0987 0.5489 0.0000
vt 0.0832 0.5342 0.0000
vt 0.0541 0.5390 0.0000
vt 0.0541 0.5293 0.0000
vt 0.0987 0.5675 0.0000
vt 0.0987 0.5814 0.0000
vt 0.0684 0.5255 0.0000
vt 0.0987 0.5311 0.0000
vt 0.0832 0.5211 0.0000
vt 0.1147 0.5850 0.0000
vt 0.1147 0.5489 0.0000
vt 0.0987 0.5168 0.0000
vt 0.1147 0.5694 0.0000
vt 0.1313 0.5871 0.0000
vt 0.1147 0.5281 0.0000
vt 0.1147 0.5123 0.0000
vt 0.1313 0.5711 0.0000
vt 0.1440 0.5732 0.0000
vt 0.1430 0.5893 0.0000
vt 0.1313 0.5256 0.0000
vt 0.1313 0.5088 0.0000
vt 0.1313 0.5489 0.0000
vt 0.1485 0.5910 0.0000
vt 0.1510 0.5225 0.0000
vt 0.1511 0.5047 0.0000
vt 0.1478 0.5489 0.0000
vt 0.1498 0.5740 0.0000
vt 0.1566 0.5809 0.0000
vt 0.1539 0.5967 0.0000
vt 0.1607 0.5209 0.0000
vt 0.1617 0.5022 0.0000
vt 0.1675 0.5957 0.0000
vt 0.1626 0.5544 0.0000
vt 0.1736 0.5735 0.0000
vt 0.1549 0.5491 0.0000
vt 0.1691 0.5274 0.0000
vt 0.1736 0.5134 0.0000
vt 0.1648 0.6083 0.0000
vt 0.1801 0.5561 0.0000
vt 0.1834 0.6016 0.0000
vt 0.1882 0.5925 0.0000
vt 0.1860 0.5487 0.0000
vt 0.1803 0.6131 0.0000
vt 0.1785 0.6223 0.0000
vt 0.1923 0.5895 0.0000
vt 0.1915 0.6257 0.0000
vt 0.1924 0.6255 0.0000
vt 0.1899 0.6282 0.0000
vt 0.1897 0.6300 0.0000
vt 0.1905 0.6266 0.0000
vt 0.1916 0.6305 0.0000
# 142 texture coords

o Cola001
g Cola001
usemtl 16___Default
s off
f 1/1/1 2/2/2 3/3/3 
f 2/2/2 4/4/4 3/3/3 
f 2/2/2 5/5/5 4/4/4 
f 3/3/3 4/4/4 6/6/6 
f 5/5/5 7/7/7 4/4/4 
f 5/5/5 8/8/8 7/7/7 
f 5/5/5 9/9/9 8/8/8 
f 6/6/6 4/4/4 10/10/10 
f 6/6/6 10/10/10 11/11/11 
f 4/4/4 7/7/7 10/10/10 
f 9/9/9 12/12/12 8/8/8 
f 9/9/9 13/13/13 12/12/12 
f 11/11/11 10/10/10 14/14/14 
f 11/11/11 14/14/14 15/15/15 
f 7/7/7 8/8/8 16/16/16 
f 7/7/7 17/17/17 10/10/10 
f 7/7/7 16/16/16 17/17/17 
f 10/10/10 17/17/17 14/14/14 
f 13/13/13 18/18/18 12/12/12 
f 13/13/13 19/19/19 18/18/18 
f 15/15/15 14/14/14 20/20/20 
f 8/8/8 21/21/21 16/16/16 
f 8/8/8 12/12/12 21/21/21 
f 17/17/17 22/22/22 14/14/14 
f 17/17/17 16/16/16 23/23/23 
f 17/17/17 23/23/23 22/22/22 
f 16/16/16 21/21/21 23/23/23 
f 14/14/14 22/22/22 20/20/20 
f 19/19/19 24/24/24 18/18/18 
f 12/12/12 25/25/25 21/21/21 
f 12/12/12 18/18/18 25/25/25 
f 23/23/23 26/26/26 22/22/22 
f 23/23/23 21/21/21 27/27/27 
f 23/23/23 28/28/28 26/26/26 
f 23/23/23 27/27/27 28/28/28 
f 26/26/26 20/20/20 22/22/22 
f 21/21/21 25/25/25 27/27/27 
f 24/24/24 29/29/29 18/18/18 
f 24/24/24 30/30/30 29/29/29 
f 28/28/28 27/27/27 31/31/31 
f 25/25/25 18/18/18 32/32/32 
f 25/25/25 33/33/33 27/27/27 
f 25/25/25 32/32/32 33/33/33 
f 27/27/27 33/33/33 31/31/31 
f 18/18/18 29/29/29 32/32/32 
f 30/30/30 34/34/34 29/29/29 
f 30/30/30 35/35/35 34/34/34 
f 30/30/30 36/36/36 35/35/35 
f 33/33/33 37/37/37 31/31/31 
f 33/33/33 32/32/32 38/38/38 
f 33/33/33 38/38/38 37/37/37 
f 29/29/29 34/34/34 39/39/39 
f 29/29/29 39/39/39 32/32/32 
f 32/32/32 39/39/39 38/38/38 
f 34/34/34 35/35/35 39/39/39 
f 36/36/36 40/40/40 35/35/35 
f 37/37/37 38/38/38 41/41/41 
f 39/39/39 35/35/35 42/42/42 
f 39/39/39 43/43/43 38/38/38 
f 39/39/39 42/42/42 43/43/43 
f 38/38/38 43/43/43 41/41/41 
f 40/40/40 44/44/44 35/35/35 
f 40/40/40 45/45/45 44/44/44 
f 40/40/40 46/46/46 45/45/45 
f 35/35/35 44/44/44 42/42/42 
f 43/43/43 47/47/47 41/41/41 
f 43/43/43 42/42/42 48/48/48 
f 43/43/43 48/48/48 47/47/47 
f 46/46/46 49/49/49 45/45/45 
f 46/46/46 50/50/50 49/49/49 
f 44/44/44 51/51/51 42/42/42 
f 44/44/44 45/45/45 52/52/52 
f 44/44/44 52/52/52 51/51/51 
f 42/42/42 51/51/51 48/48/48 
f 47/47/47 48/48/48 53/53/53 
f 50/50/50 54/54/54 49/49/49 
f 50/50/50 55/55/55 54/54/54 
f 45/45/45 56/56/56 52/52/52 
f 45/45/45 49/49/49 56/56/56 
f 51/51/51 57/57/57 48/48/48 
f 51/51/51 52/52/52 57/57/57 
f 48/48/48 57/57/57 53/53/53 
f 55/55/55 58/58/58 54/54/54 
f 55/55/55 59/59/59 58/58/58 
f 49/49/49 60/60/60 56/56/56 
f 49/49/49 54/54/54 60/60/60 
f 52/52/52 61/61/61 57/57/57 
f 52/52/52 56/56/56 62/62/62 
f 52/52/52 62/62/62 61/61/61 
f 53/53/53 57/57/57 63/63/63 
f 57/57/57 61/61/61 63/63/63 
f 59/59/59 64/64/64 58/58/58 
f 54/54/54 65/65/65 60/60/60 
f 54/54/54 58/58/58 65/65/65 
f 58/58/58 64/64/64 65/65/65 
f 56/56/56 66/66/66 62/62/62 
f 56/56/56 60/60/60 66/66/66 
f 61/61/61 67/67/67 63/63/63 
f 61/61/61 62/62/62 68/68/68 
f 61/61/61 68/68/68 67/67/67 
f 64/64/64 69/69/69 65/65/65 
f 64/64/64 70/70/70 69/69/69 
f 69/69/69 66/66/66 60/60/60 
f 69/69/69 60/60/60 65/65/65 
f 69/69/69 70/70/70 66/66/66 
f 62/62/62 71/71/71 68/68/68 
f 62/62/62 66/66/66 71/71/71 
f 71/71/71 66/66/66 70/70/70 
f 1/72/1 72/73/72 2/74/2 
f 72/73/72 73/75/73 2/74/2 
f 72/73/72 74/76/74 73/75/73 
f 2/74/2 73/75/73 5/77/5 
f 74/76/74 75/78/75 73/75/73 
f 74/76/74 76/79/76 75/78/75 
f 5/77/5 73/75/73 77/80/77 
f 5/77/5 77/80/77 78/81/78 
f 5/77/5 78/81/78 9/82/9 
f 73/75/73 75/78/75 77/80/77 
f 76/79/76 79/83/79 75/78/75 
f 76/79/76 15/84/15 79/83/79 
f 78/81/78 80/85/80 9/82/9 
f 78/81/78 77/80/77 81/86/81 
f 78/81/78 82/87/82 80/85/80 
f 78/81/78 81/86/81 82/87/82 
f 75/78/75 79/83/79 83/88/83 
f 75/78/75 83/88/83 77/80/77 
f 77/80/77 83/88/83 81/86/81 
f 15/84/15 20/89/20 79/83/79 
f 9/82/9 80/85/80 13/90/13 
f 82/87/82 81/86/81 84/91/84 
f 82/87/82 85/92/85 80/85/80 
f 82/87/82 84/91/84 86/93/86 
f 82/87/82 86/93/86 85/92/85 
f 81/86/81 83/88/83 84/91/84 
f 20/89/20 87/94/87 79/83/79 
f 20/89/20 26/95/26 87/94/87 
f 87/94/87 84/91/84 83/88/83 
f 87/94/87 83/88/83 79/83/79 
f 87/94/87 26/95/26 84/91/84 
f 13/90/13 80/85/80 88/96/88 
f 13/90/13 88/96/88 19/97/19 
f 80/85/80 85/92/85 88/96/88 
f 86/93/86 84/91/84 28/98/28 
f 86/93/86 89/99/89 85/92/85 
f 86/93/86 28/98/28 31/100/31 
f 86/93/86 31/100/31 89/99/89 
f 28/98/28 84/91/84 26/95/26 
f 19/97/19 88/96/88 24/101/24 
f 85/92/85 89/99/89 90/102/90 
f 85/92/85 90/102/90 88/96/88 
f 31/100/31 37/103/37 89/99/89 
f 24/101/24 88/96/88 91/104/91 
f 24/101/24 91/104/91 30/105/30 
f 88/96/88 90/102/90 91/104/91 
f 37/103/37 92/106/92 89/99/89 
f 37/103/37 41/107/41 92/106/92 
f 89/99/89 92/106/92 90/102/90 
f 30/105/30 91/104/91 93/108/93 
f 30/105/30 93/108/93 94/109/94 
f 30/105/30 94/109/94 36/110/36 
f 41/107/41 95/111/95 92/106/92 
f 41/107/41 47/112/47 95/111/95 
f 90/102/90 96/113/96 91/104/91 
f 90/102/90 92/106/92 96/113/96 
f 93/108/93 96/113/96 94/109/94 
f 93/108/93 91/104/91 96/113/96 
f 92/106/92 95/111/95 96/113/96 
f 36/110/36 94/109/94 40/114/40 
f 47/112/47 97/115/97 95/111/95 
f 47/112/47 53/116/53 97/115/97 
f 96/113/96 98/117/98 94/109/94 
f 96/113/96 95/111/95 98/117/98 
f 95/111/95 97/115/97 98/117/98 
f 40/114/40 94/109/94 99/118/99 
f 40/114/40 99/118/99 100/119/100 
f 40/114/40 100/119/100 46/120/46 
f 94/109/94 98/117/98 99/118/99 
f 53/116/53 101/121/101 97/115/97 
f 53/116/53 63/122/63 101/121/101 
f 100/119/100 102/123/102 46/120/46 
f 100/119/100 99/118/99 103/124/103 
f 100/119/100 104/125/104 102/123/102 
f 100/119/100 103/124/103 104/125/104 
f 98/117/98 97/115/97 105/126/105 
f 98/117/98 105/126/105 99/118/99 
f 105/126/105 97/115/97 101/121/101 
f 105/126/105 101/121/101 103/124/103 
f 105/126/105 103/124/103 99/118/99 
f 63/122/63 106/127/106 101/121/101 
f 63/122/63 67/128/67 106/127/106 
f 101/121/101 106/127/106 103/124/103 
f 46/120/46 102/123/102 50/129/50 
f 104/125/104 103/124/103 107/130/107 
f 104/125/104 108/131/108 102/123/102 
f 104/125/104 107/130/107 109/132/109 
f 104/125/104 109/132/109 108/131/108 
f 103/124/103 106/127/106 107/130/107 
f 67/128/67 68/133/68 106/127/106 
f 106/127/106 68/133/68 107/130/107 
f 50/129/50 102/123/102 110/134/110 
f 50/129/50 110/134/110 55/135/55 
f 102/123/102 108/131/108 110/134/110 
f 109/132/109 107/130/107 71/136/71 
f 109/132/109 111/137/111 108/131/108 
f 109/132/109 71/136/71 70/138/70 
f 109/132/109 70/138/70 111/137/111 
f 71/136/71 107/130/107 68/133/68 
f 55/135/55 110/134/110 112/139/112 
f 55/135/55 112/139/112 59/140/59 
f 108/131/108 111/137/111 113/141/113 
f 108/131/108 113/141/113 110/134/110 
f 110/134/110 113/141/113 112/139/112 
f 70/138/70 64/142/64 111/137/111 
f 64/142/64 59/140/59 112/139/112 
f 64/142/64 112/139/112 113/141/113 
f 64/142/64 113/141/113 111/137/111 
f 72/73/114 74/76/114 76/79/114 
f 72/73/115 76/79/115 15/15/115 
f 72/73/116 15/15/116 11/11/116 
f 72/73/117 11/11/117 6/6/117 
f 72/73/118 6/6/118 3/3/118 
f 72/73/119 3/3/119 1/1/119 
# 0 polygons - 222 triangles

