# 3ds Max Wavefront OBJ Exporter v0.99 - (c)2007 guruware
# File Created: 26.05.2023 03:09:28

mtllib shop.mtl

#
# object PokÃ__Mart
#

v  -1.0000 0.0000 -1.0000
v  -1.0000 0.0000 1.0000
v  1.0000 0.0000 1.0000
v  1.0000 0.0000 -1.0000
v  -1.0000 -1.0000 -1.0000
v  -1.0000 -1.0000 1.0000
v  -1.0000 1.0000 1.0000
v  -1.0000 1.0000 -1.0000
v  1.0000 -1.0000 -1.0000
v  1.0000 1.0000 -1.0000
v  1.0000 -1.0000 1.0000
v  1.0000 1.0000 1.0000
v  6.3972 22.9974 10.5852
v  6.2161 16.8735 10.5852
v  19.4006 16.8545 10.5852
v  19.5817 22.9783 10.5852
v  -23.3711 39.9707 11.9922
v  -14.9941 52.0098 5.7109
v  -32.7930 39.9707 2.5703
v  -24.4180 52.0098 -3.7129
v  -32.7930 39.9707 -21.5117
v  -24.4180 52.0098 -14.1816
v  14.9941 52.0098 5.7109
v  7.0000 52.0098 5.7109
v  7.0000 39.9707 11.9922
v  23.3711 39.9707 11.9922
v  -7.0000 52.0098 5.7109
v  -7.0000 39.9707 11.9922
v  24.4180 52.0098 -14.1816
v  24.4180 52.0098 -3.7129
v  32.7930 39.9707 2.5703
v  32.7930 39.9707 -21.5117
v  23.9394 51.2246 -14.5957
v  31.5000 39.2090 -20.8945
v  22.6797 39.2090 -29.7148
v  15.1191 51.2227 -23.4160
v  23.9394 51.2246 -3.8555
v  31.5000 39.2090 2.4453
v  15.1191 51.2246 4.9648
v  22.6797 39.2090 11.2656
v  -15.1191 51.2246 4.9648
v  -22.6797 39.2090 11.2656
v  -23.9394 51.2246 -3.8555
v  -31.5000 39.2090 2.4453
v  -23.9394 51.2246 -14.5957
v  -31.5000 39.2090 -20.8945
v  -15.1191 51.2227 -23.4160
v  -22.6797 39.2090 -29.7148
v  30.2402 36.9902 -20.8945
v  22.6797 36.9902 -28.4551
v  30.2402 36.9902 2.4453
v  22.6797 36.9902 10.0039
v  -22.6797 36.9902 10.0039
v  -30.2402 36.9902 2.4453
v  -30.2402 36.9902 -20.8945
v  -22.6797 36.9902 -28.4551
v  0.0000 51.2246 -9.2949
v  22.6953 36.9902 10.0293
v  2.0000 36.9902 10.0293
v  22.6953 31.9902 10.0293
v  2.0000 31.9902 10.0293
v  22.6953 10.9902 10.0293
v  2.0000 10.9902 10.0293
v  22.6953 1.9902 10.0293
v  2.0000 1.9902 10.0293
v  30.2324 36.9902 -20.9707
v  30.2324 36.9902 2.4453
v  30.2324 31.9902 -20.9707
v  30.2324 31.9902 2.4453
v  30.2324 10.9902 -20.9707
v  30.2324 10.9902 2.4453
v  30.2324 1.9902 -20.9707
v  30.2324 1.9902 2.4453
v  -18.0000 36.9902 10.0293
v  -22.6953 36.9902 10.0293
v  -18.0000 31.9902 10.0293
v  -22.6953 31.9902 10.0293
v  -18.0000 10.9902 10.0293
v  -22.6953 10.9902 10.0293
v  -18.0000 1.9902 10.0293
v  -22.6953 1.9902 10.0293
v  -30.2324 36.9902 2.4453
v  -30.2324 31.9902 2.4453
v  -30.2324 10.9902 2.4453
v  -30.2324 1.9902 2.4453
v  22.6953 36.9902 -28.4336
v  22.6953 31.9902 -28.4336
v  22.6953 10.9902 -28.4336
v  22.6953 1.9902 -28.4336
v  2.0000 31.9902 8.0293
v  2.0000 10.9902 8.0293
v  2.0000 1.9902 8.0293
v  -18.0000 31.9902 8.0293
v  -18.0000 10.9902 8.0293
v  -18.0000 1.9902 8.0293
v  -30.2324 31.9902 -20.9707
v  -30.2324 10.9902 -20.9707
v  -30.2324 1.9902 -20.9707
v  -22.6953 31.9902 -28.4336
v  -22.6953 10.9902 -28.4336
v  -22.6953 1.9902 -28.4336
v  -18.0000 1.9902 -7.9707
v  -18.0000 31.9902 -7.9707
v  2.0000 31.9902 -7.9707
v  2.0000 1.9902 -7.9707
v  -30.2324 36.9902 -20.9707
v  -22.6953 36.9902 -28.4336
# 107 vertices

vn 0.0000 1.0000 -0.0000
vn -1.0000 0.0000 -0.0000
vn 0.0000 0.0000 -1.0000
vn 1.0000 0.0000 -0.0000
vn 0.0000 0.0000 1.0000
vn 0.0000 -1.0000 -0.0000
vn -0.5480 0.6319 0.5480
vn -0.8944 0.0000 0.4473
vn -0.8944 0.0000 0.4472
vn 0.0000 0.4651 0.8853
vn 0.8944 0.0000 0.4472
vn 0.5480 0.6319 0.5480
vn 0.5479 0.6321 -0.5480
vn 0.6991 0.1504 -0.6991
vn 0.6990 0.1504 -0.6991
vn 0.8459 0.5333 -0.0000
vn 0.5479 0.6321 0.5479
vn 0.6991 0.1504 0.6991
vn 0.0000 0.4644 0.8856
vn -0.5479 0.6321 0.5479
vn -0.6991 0.1504 0.6991
vn -0.8459 0.5333 -0.0000
vn -0.5479 0.6321 -0.5480
vn -0.6990 0.1504 -0.6991
vn -0.6991 0.1504 -0.6991
vn 0.0000 0.4644 -0.8857
vn 0.0000 -0.0176 -0.9998
vn 0.6991 0.1503 -0.6991
vn 0.6562 -0.3726 -0.6562
vn 0.8696 -0.4937 -0.0000
vn 0.6991 0.1504 0.6990
vn 0.6561 -0.3728 0.6562
vn 0.6990 0.1503 0.6991
vn 0.0000 -0.4943 0.8693
vn -0.6990 0.1503 0.6991
vn -0.6561 -0.3732 0.6559
vn -0.6991 0.1504 0.6990
vn -0.8696 -0.4937 -0.0000
vn -0.6991 0.1503 -0.6991
vn -0.6562 -0.3726 -0.6562
vn 0.0000 -0.4944 -0.8692
vn 0.0000 1.0000 -0.0001
vn 0.0000 1.0000 -0.0002
vn 0.7089 0.0000 0.7053
vn 0.7090 0.0000 0.7053
vn 0.7085 0.0000 0.7057
vn 0.7093 0.0000 0.7049
vn -0.7089 0.0000 0.7053
vn -0.7085 0.0000 0.7057
vn -0.7090 0.0000 0.7053
vn -0.7093 0.0000 0.7049
vn 0.7036 0.0000 -0.7106
vn 0.7033 0.0000 -0.7109
vn 0.7031 0.0000 -0.7111
vn 0.7026 0.0000 -0.7116
vn 0.7029 0.0000 -0.7113
vn -0.7031 0.0000 -0.7111
vn -0.7033 0.0000 -0.7109
vn -0.7026 0.0000 -0.7116
vn -0.7029 0.0000 -0.7113
vn -0.7036 0.0000 -0.7106
vn -0.0011 0.0000 -1.0000
vn 0.0000 0.0011 -1.0000
vn -0.0002 -0.0011 -1.0000
vn -0.0011 0.0002 -1.0000
vn -0.0006 0.0000 -1.0000
vn 0.0000 0.0006 -1.0000
vn -0.0002 -0.0006 -1.0000
vn -0.0005 0.0002 -1.0000
# 69 vertex normals

vt 0.0000 1.0000 0.0000
vt 0.0000 0.0000 0.0000
vt 1.0000 0.0000 0.0000
vt 1.0000 1.0000 0.0000
vt 0.3750 0.2500 0.0000
vt 0.3750 0.0000 0.0000
vt 0.6250 0.0000 0.0000
vt 0.6250 0.2500 0.0000
vt 0.3750 0.5000 0.0000
vt 0.6250 0.5000 0.0000
vt 0.3750 0.7500 0.0000
vt 0.6250 0.7500 0.0000
vt 0.3750 1.0000 0.0000
vt 0.6250 1.0000 0.0000
vt 0.1250 0.7500 0.0000
vt 0.1250 0.5000 0.0000
vt 0.8750 0.5000 0.0000
vt 0.8750 0.7500 0.0000
vt 0.2541 1.0031 0.0000
vt 0.2541 0.7190 0.0000
vt 0.9970 0.7190 0.0000
vt 0.9970 1.0031 0.0000
vt 0.3750 -0.8594 0.0000
vt 0.3750 -0.3594 0.0000
vt 0.1406 -0.8594 0.0000
vt 0.1406 -0.3594 0.0000
vt 0.5312 -0.8594 0.0000
vt 0.5312 -0.3594 0.0000
vt 0.9844 -0.3594 0.0000
vt 0.5156 -0.3594 0.0000
vt 0.5156 -0.8594 0.0000
vt 0.9844 -0.8594 0.0000
vt 0.0156 -0.3594 0.0000
vt 0.0156 -0.8594 0.0000
vt 0.1094 -0.8594 0.0000
vt 0.1094 -0.3594 0.0000
vt 0.0312 -0.7812 0.0000
vt 0.0312 -0.8438 0.0000
vt 0.0938 -0.8438 0.0000
vt 0.0938 -0.7812 0.0000
vt 0.0156 -0.9375 0.0000
vt 0.9531 -0.9844 0.0000
vt 0.9531 -0.8906 0.0000
vt 0.6094 0.0000 0.0000
vt 0.6094 -0.1875 0.0000
vt 0.0000 -0.1875 0.0000
vt 0.6094 -0.7812 0.0000
vt 0.0000 -0.7812 0.0000
vt 0.6094 -1.0000 0.0000
vt 0.0000 -1.0000 0.0000
vt 0.1719 0.0000 0.0000
vt 0.3750 -0.1875 0.0000
vt 0.1719 -0.1875 0.0000
vt 0.3750 -0.7812 0.0000
vt 0.1719 -0.7812 0.0000
vt 0.3750 -1.0000 0.0000
vt 0.1719 -1.0000 0.0000
vt 0.5312 0.0000 0.0000
vt 0.5312 -0.1875 0.0000
vt 0.5312 -0.7812 0.0000
vt 0.5312 -1.0000 0.0000
vt 0.5781 0.0000 0.0000
vt 0.5781 -0.7812 0.0000
vt 0.5781 -1.0000 0.0000
vt 0.8906 -0.9375 0.0000
vt 0.8906 -0.9844 0.0000
vt 0.8906 -0.8906 0.0000
vt 0.4062 0.0000 0.0000
vt 0.2031 0.0000 0.0000
vt 0.2031 -0.1875 0.0000
vt 0.4062 -0.1875 0.0000
# 71 texture coords

o PokÃ__Mart
g PokÃ__Mart
usemtl h_kage
s off
f 1/1/1 2/2/1 3/3/1 
f 3/3/1 4/4/1 1/1/1 
f 1/1/1 2/2/1 3/3/1 
f 3/3/1 4/4/1 1/1/1 
f 1/1/1 2/2/1 3/3/1 
f 3/3/1 4/4/1 1/1/1 
f 5/5/2 6/6/2 7/7/2 
f 7/7/2 8/8/2 5/5/2 
f 9/9/3 5/5/3 8/8/3 
f 8/8/3 10/10/3 9/9/3 
f 11/11/4 9/9/4 10/10/4 
f 10/10/4 12/12/4 11/11/4 
f 6/13/5 11/11/5 12/12/5 
f 12/12/5 7/14/5 6/13/5 
f 6/15/6 5/16/6 9/9/6 
f 9/9/6 11/11/6 6/15/6 
f 12/12/1 10/10/1 8/17/1 
f 8/17/1 7/18/1 12/12/1 
f 1/1/1 2/2/1 3/3/1 
f 3/3/1 4/4/1 1/1/1 
f 1/1/1 2/2/1 3/3/1 
f 3/3/1 4/4/1 1/1/1 
f 9/9/3 5/5/3 8/8/3 
f 8/8/3 10/10/3 9/9/3 
f 11/11/4 9/9/4 10/10/4 
f 10/10/4 12/12/4 11/11/4 
f 6/13/5 11/11/5 12/12/5 
f 12/12/5 7/14/5 6/13/5 
f 12/12/1 10/10/1 8/17/1 
f 8/17/1 7/18/1 12/12/1 
f 13/19/5 14/20/5 15/21/5 
f 15/21/5 16/22/5 13/19/5 
usemtl light2
f 17/23/7 18/24/7 19/25/8 
f 18/24/7 20/26/9 19/25/8 
f 19/25/9 20/26/8 21/27/9 
f 20/26/9 22/28/9 21/27/9 
f 23/26/10 24/28/10 25/27/10 
f 25/27/10 26/25/10 23/26/10 
f 24/29/10 27/30/10 28/31/10 
f 28/31/10 25/32/10 24/29/10 
f 29/28/11 30/26/11 31/25/11 
f 31/25/11 32/27/11 29/28/11 
f 30/24/11 23/26/12 26/25/12 
f 26/25/12 31/23/11 30/24/11 
f 18/26/10 17/25/10 28/27/10 
f 28/27/10 27/28/10 18/26/10 
usemtl lambert4
f 33/33/13 34/34/14 35/35/15 
f 35/35/15 36/36/13 33/33/13 
f 37/33/16 38/34/4 34/35/4 
f 34/35/4 33/36/16 37/33/16 
f 37/36/17 39/33/17 40/34/18 
f 40/34/18 38/35/18 37/36/17 
f 40/35/5 39/36/19 41/33/19 
f 41/33/19 42/34/5 40/35/5 
f 43/33/20 44/34/21 42/35/21 
f 42/35/21 41/36/20 43/33/20 
f 45/33/22 46/34/2 44/35/2 
f 44/35/2 43/36/22 45/33/22 
f 45/36/23 47/33/23 48/34/24 
f 48/34/24 46/35/25 45/36/23 
f 36/33/26 35/34/27 48/35/27 
f 48/35/27 47/36/26 36/33/26 
f 34/37/28 49/38/29 50/39/29 
f 50/39/29 35/40/28 34/37/28 
f 38/37/4 51/38/30 49/39/30 
f 49/39/30 34/40/4 38/37/4 
f 40/37/31 52/38/32 51/39/32 
f 51/39/32 38/40/33 40/37/31 
f 40/40/5 42/37/5 53/38/34 
f 53/38/34 52/39/34 40/40/5 
f 44/37/35 54/38/36 53/39/36 
f 53/39/36 42/40/37 44/37/35 
f 46/37/2 55/38/38 54/39/38 
f 54/39/38 44/40/2 46/37/2 
f 48/37/39 56/38/40 55/39/40 
f 55/39/40 46/40/39 48/37/39 
f 35/37/27 50/38/41 56/39/41 
f 56/39/41 48/40/27 35/37/27 
f 57/41/42 36/42/42 47/43/42 
f 36/43/43 57/41/43 33/42/43 
f 33/43/1 57/41/1 37/42/1 
f 57/41/1 41/42/1 39/43/1 
f 57/41/1 43/42/1 41/43/1 
f 57/41/1 45/42/1 43/43/1 
f 47/42/43 45/43/43 57/41/43 
f 37/43/1 57/41/1 39/42/1 
usemtl lambert2
f 58/44/5 59/2/5 60/45/5 
f 59/2/5 61/46/5 60/45/5 
f 60/45/5 61/46/5 62/47/5 
f 61/46/5 63/48/5 62/47/5 
f 62/47/5 63/48/5 64/49/5 
f 63/48/5 65/50/5 64/49/5 
f 66/6/4 67/51/4 68/52/4 
f 67/51/4 69/53/4 68/52/4 
f 68/52/4 69/53/4 70/54/4 
f 69/53/4 71/55/4 70/54/4 
f 70/54/4 71/55/4 72/56/4 
f 71/55/4 73/57/4 72/56/4 
f 67/6/44 58/51/45 69/52/44 
f 58/51/44 60/53/44 69/52/46 
f 69/52/47 60/53/47 71/54/47 
f 60/53/47 62/55/47 71/54/47 
f 71/54/47 62/55/47 73/56/47 
f 62/55/47 64/57/47 73/56/47 
f 74/44/5 75/58/5 76/45/5 
f 75/58/5 77/59/5 76/45/5 
f 76/45/5 77/59/5 78/47/5 
f 77/59/5 79/60/5 78/47/5 
f 78/47/5 79/60/5 80/49/5 
f 79/60/5 81/61/5 80/49/5 
f 75/51/48 82/6/49 77/53/48 
f 82/6/48 83/52/48 77/53/50 
f 77/53/51 83/52/51 79/55/51 
f 83/52/51 84/54/51 79/55/51 
f 79/55/51 84/54/51 81/57/51 
f 84/54/51 85/56/51 81/57/51 
f 86/6/52 66/51/53 87/52/52 
f 66/51/52 68/53/52 87/52/53 
f 87/52/53 68/53/54 88/54/53 
f 68/53/54 70/55/54 88/54/54 
f 88/54/55 70/55/56 89/56/55 
f 70/55/55 72/57/55 89/56/55 
f 61/44/2 90/62/2 63/47/2 
f 90/62/2 91/63/2 63/47/2 
f 63/47/2 91/63/2 65/49/2 
f 91/63/2 92/64/2 65/49/2 
f 93/44/4 76/62/4 94/47/4 
f 76/62/4 78/63/4 94/47/4 
f 94/47/4 78/63/4 95/49/4 
f 78/63/4 80/64/4 95/49/4 
f 83/53/2 96/52/2 84/55/2 
f 96/52/2 97/54/2 84/55/2 
f 84/55/2 97/54/2 85/57/2 
f 97/54/2 98/56/2 85/57/2 
f 96/52/57 99/53/57 97/54/57 
f 99/53/58 100/55/58 97/54/57 
f 97/54/59 100/55/59 98/56/59 
f 100/55/59 101/57/59 98/56/60 
f 94/65/4 95/66/4 102/42/4 
f 102/42/4 103/43/4 94/65/4 
f 91/65/2 104/43/2 105/42/2 
f 105/42/2 92/66/2 91/65/2 
f 102/43/1 95/67/1 92/66/1 
f 92/66/1 105/42/1 102/43/1 
f 59/68/5 74/69/5 76/70/5 
f 76/70/5 61/71/5 59/68/5 
f 103/67/5 102/66/5 105/42/5 
f 105/42/5 104/43/5 103/67/5 
f 106/51/2 96/53/2 83/52/2 
f 83/52/2 82/6/2 106/51/2 
f 107/6/61 99/52/61 96/53/61 
f 96/53/61 106/51/61 107/6/61 
f 103/43/4 93/67/4 94/65/4 
f 91/65/2 90/67/2 104/43/2 
f 100/54/62 88/54/63 89/56/64 
f 89/56/64 101/56/65 100/54/62 
f 107/6/3 86/6/3 87/52/3 
f 87/52/3 99/52/3 107/6/3 
f 99/52/66 87/52/67 88/54/68 
f 88/54/68 100/54/69 99/52/66 
# 160 faces

